<?xml version="1.0" encoding="utf-8"?>
<!-- Generator: Adobe Illustrator 21.1.0, SVG Export Plug-In . SVG Version: 6.00 Build 0)  -->
<svg version="1.1" id="圖層_1" xmlns="http://www.w3.org/2000/svg" xmlns:xlink="http://www.w3.org/1999/xlink" x="0px" y="0px"
	 viewBox="0 0 175.7 175.7" style="enable-background:new 0 0 175.7 175.7;" xml:space="preserve">
<style type="text/css">
	.st0{fill:#E1A32B;}
</style>
<title>Logo</title>
<path class="st0" d="M133.8,80.2l-2.1-1.2c0.1,0.6,0,1.3-0.3,1.8c-0.7,1.2-2.2,1.6-3.4,0.9c-1.2-0.7-1.6-2.2-0.9-3.4l0,0
	c0.2-0.4,0.6-0.8,1-1c-4.7-1.2-9.7,0.9-12.1,5.1l-0.6,1L98,113.6l-0.6,1.1c-3,5.2-1.2,11.8,4,14.8l3,1.7c5.2,3,11.8,1.2,14.8-4
	c0,0,0,0,0,0l0.8-1.5l0.4-0.7l0,0l4.7-8.1l6.8-11.8l0,0l4.7-8.1l0.4-0.7l0.8-1.4C140.8,89.9,139.1,83.3,133.8,80.2
	C133.9,80.2,133.9,80.2,133.8,80.2z M129.1,85.6c0.7-1.2,2.2-1.6,3.4-0.9c1.2,0.7,1.6,2.2,0.9,3.4c-0.7,1.2-2.2,1.6-3.4,0.9
	C128.8,88.4,128.4,86.8,129.1,85.6L129.1,85.6z M126.2,90.1c-0.2,0.3-0.5,0.6-0.8,0.9c-1.2,0.8-2.7,0.4-3.5-0.7
	c-0.4-0.6-0.5-1.4-0.3-2.1c0.1-0.2,0.1-0.4,0.2-0.5c0.7-1.2,2.2-1.6,3.4-0.9C126.5,87.3,126.9,88.9,126.2,90.1z M119.9,80.3
	c0.7-1.2,2.2-1.6,3.4-0.9c1.2,0.7,1.6,2.2,0.9,3.4c-0.7,1.2-2.2,1.6-3.4,0.9c0,0,0,0,0,0C119.6,83,119.2,81.5,119.9,80.3L119.9,80.3
	z M108.4,119.6l-1.2,2.1c-0.1,0.2-0.3,0.3-0.5,0.4l-1.8,0.4c-0.2,0-0.4-0.1-0.5-0.3l-0.6-1.8c-0.1-0.2-0.1-0.4,0-0.6l1.2-2.1
	c0.2-0.3,0.6-0.5,0.9-0.3c0,0,0,0,0.1,0l2.1,1.2C108.5,118.9,108.6,119.3,108.4,119.6C108.5,119.6,108.4,119.7,108.4,119.6
	L108.4,119.6z M98.8,122.3c-0.3-0.2-0.5-0.6-0.3-1c0,0,0,0,0,0l1.3-2.1c0.2-0.3,0.6-0.5,0.9-0.3c0,0,0,0,0.1,0l2,1.2
	c0.2,0.1,0.3,0.3,0.3,0.5l0.4,1.8c0,0.2-0.1,0.4-0.3,0.5l-1.8,0.6c-0.2,0.1-0.4,0.1-0.6,0L98.8,122.3z M104.5,126.5l-1.2,2.1
	c-0.2,0.3-0.6,0.5-1,0.3c0,0,0,0,0,0l-2.2-1.2c-0.3-0.2-0.5-0.6-0.3-1c0,0,0,0,0,0l1.2-2.1c0.1-0.2,0.3-0.3,0.5-0.4l1.9-0.4
	c0.2,0,0.4,0.1,0.5,0.3l0.6,1.8C104.6,126.1,104.6,126.3,104.5,126.5L104.5,126.5z M109.9,125l-1.2,2.1c-0.2,0.3-0.6,0.5-1,0.3
	c0,0,0,0,0,0l-2.1-1.2c-0.2-0.1-0.3-0.3-0.4-0.5l-0.4-1.9c0-0.2,0.1-0.4,0.3-0.5l1.8-0.6c0.2-0.1,0.4-0.1,0.6,0l2.1,1.2
	C109.9,124.1,110.1,124.6,109.9,125C109.9,124.9,109.9,125,109.9,125L109.9,125z M122.4,120.9c-0.9,1.6-2.8,2.5-4.6,2.1
	c-0.5-0.1-1-0.3-1.4-0.5c-2.1-1.2-2.8-3.9-1.6-6c1.2-2.1,3.9-2.8,6-1.6C122.9,116.1,123.6,118.8,122.4,120.9
	C122.4,120.9,122.4,120.9,122.4,120.9L122.4,120.9z M133.9,101.1c-1.2,2.1-3.9,2.8-6,1.6c-2.1-1.2-2.8-3.9-1.6-6
	c0.8-1.4,2.2-2.2,3.8-2.2l0,0c0.8,0,1.5,0.2,2.2,0.6c0.4,0.2,0.8,0.6,1.1,0.9C134.6,97.4,134.8,99.4,133.9,101.1z"/>
<path class="st0" d="M128.1,136.2l-8-10.4l-0.4-0.5l-1.1-1.4c-0.2-0.3-0.5-0.6-0.8-0.9c-0.5-0.1-1-0.3-1.4-0.5
	c-0.7-0.4-1.2-0.9-1.6-1.6c-0.1-0.1-0.2-0.1-0.3-0.1l-2.5-1.1l-13.9-6h-0.1c-1.7-0.9-3.7-0.3-4.7,1.3l-2.7,4.6
	c-0.8,1.3-0.1,2.4,0.6,3.6c0.5,0.8,1,1.5,1.7,2.1l11.3,10.9c2.2,2.2,4.7,4,7.4,5.6l8,4.5c2.4,1.9,5.8,1.5,7.7-0.9
	c0.2-0.2,0.3-0.4,0.4-0.7l0.8-1.4C130,141.2,129.8,138.3,128.1,136.2z M109.9,125l-1.2,2.1c-0.2,0.3-0.6,0.5-1,0.3c0,0,0,0,0,0
	l-2.1-1.2c-0.2-0.1-0.3-0.3-0.4-0.5l-0.4-1.9c0-0.2,0.1-0.4,0.3-0.5l1.8-0.6c0.2-0.1,0.4-0.1,0.6,0l2.1,1.2
	C109.9,124.1,110.1,124.6,109.9,125C109.9,124.9,109.9,125,109.9,125L109.9,125z M102.3,128.8l-2.2-1.2c-0.3-0.2-0.5-0.6-0.3-1
	c0,0,0,0,0,0l1.2-2.1c0.1-0.2,0.3-0.3,0.5-0.4l1.9-0.4c0.2,0,0.4,0.1,0.5,0.3l0.6,1.8c0.1,0.2,0.1,0.4,0,0.6l-1.2,2.1
	C103.2,128.9,102.8,129,102.3,128.8C102.4,128.8,102.4,128.8,102.3,128.8z M103.9,119.8l1.2-2.1c0.2-0.3,0.6-0.5,0.9-0.3
	c0,0,0,0,0.1,0l2.1,1.2c0.3,0.2,0.5,0.6,0.3,1c0,0,0,0,0,0l-1.2,2.1c-0.1,0.2-0.3,0.3-0.5,0.4l-1.8,0.4c-0.2,0-0.4-0.1-0.5-0.3
	l-0.6-1.8C103.7,120.3,103.7,120,103.9,119.8L103.9,119.8z M98.5,121.3l1.3-2.1c0.2-0.3,0.6-0.5,0.9-0.3c0,0,0,0,0.1,0l2,1.1
	c0.2,0.1,0.3,0.3,0.3,0.5l0.4,1.8c0,0.2-0.1,0.4-0.3,0.5l-1.8,0.6c-0.2,0.1-0.4,0.1-0.6,0l-2.1-1.2
	C98.4,122.1,98.3,121.7,98.5,121.3C98.5,121.3,98.5,121.3,98.5,121.3L98.5,121.3z"/>
<path class="st0" d="M125.1,117.1c-0.9-3.6-4.5-5.8-8.1-4.9c-3.6,0.9-5.8,4.5-4.9,8.1c0.8,3.4,4.1,5.6,7.6,5c0.3,0,0.5-0.1,0.8-0.2
	l0,0C123.9,124.1,126,120.6,125.1,117.1L125.1,117.1z M117.8,123c-0.5-0.1-1-0.3-1.4-0.5c-2.1-1.2-2.9-3.9-1.7-6.1
	c1.2-2.1,3.9-2.9,6.1-1.7c2.1,1.2,2.9,3.9,1.7,6.1C121.5,122.4,119.7,123.3,117.8,123z"/>
<path class="st0" d="M154.7,85.9l-7.9-4.6c-2.7-1.6-5.6-2.8-8.6-3.6l-15.1-4.4c-0.9-0.3-1.8-0.4-2.7-0.4c-1.5,0-2.7,0-3.5,1.3
	l-2.7,4.6c-0.9,1.6-0.4,3.7,1.2,4.7h0.1l6.1,4.6c0.1-0.2,0.1-0.4,0.2-0.5c0.6-1.3,2-1.9,3.3-1.3c1.3,0.6,1.9,2,1.3,3.3
	c-0.1,0.2-0.2,0.3-0.3,0.5c-0.2,0.3-0.5,0.6-0.8,0.9l2.2,1.6l2.2,1.6l0.3,0.2l0,0c0.8,0,1.5,0.2,2.2,0.6c0.4,0.2,0.8,0.6,1.1,0.9
	c0.4,0.1,0.8,0.2,1.2,0.2l1.8,0.2l0.6,0.1l13,1.8c2.6,0.4,5.3-0.9,6.6-3.2l0.8-1.4c1.5-2.6,0.6-5.9-2-7.4
	C155.1,86.1,154.9,86,154.7,85.9z M130,89.1c-1.2-0.7-1.6-2.2-0.9-3.4c0.7-1.2,2.2-1.6,3.4-0.9c1.2,0.7,1.6,2.2,0.9,3.4
	C132.8,89.3,131.2,89.8,130,89.1z M124.2,82.8c-0.7,1.2-2.2,1.6-3.4,0.9c-1.2-0.7-1.6-2.2-0.9-3.4c0.7-1.2,2.2-1.6,3.4-0.9
	c0,0,0,0,0,0C124.5,80.1,124.9,81.6,124.2,82.8C124.2,82.8,124.2,82.8,124.2,82.8L124.2,82.8z M127.2,78.3c0.2-0.4,0.6-0.8,1-1
	c1.2-0.7,2.7-0.2,3.4,1c0.1,0.2,0.2,0.5,0.3,0.7l0,0c0.1,0.6,0,1.3-0.3,1.8c-0.7,1.2-2.2,1.6-3.4,0.9
	C126.9,81.1,126.5,79.6,127.2,78.3L127.2,78.3L127.2,78.3z"/>
<path class="st0" d="M136.6,97.2c-0.1-0.3-0.1-0.5-0.2-0.8c-1.3-3.5-5.2-5.2-8.7-3.9c-3.5,1.3-5.2,5.2-3.9,8.7
	c1.2,3.3,4.8,5,8.1,4.1l0,0C135.4,104.3,137.5,100.7,136.6,97.2L136.6,97.2z M127.9,102.6c-2.1-1.2-2.8-3.9-1.6-6
	c0.8-1.4,2.2-2.2,3.8-2.2l0,0c0.8,0,1.5,0.2,2.2,0.6c0.4,0.2,0.8,0.6,1.1,0.9c1.6,1.8,1.4,4.6-0.4,6.2
	C131.5,103.4,129.5,103.6,127.9,102.6L127.9,102.6z"/>
<path class="st0" d="M106.5,40.7H69.3c-6,0-10.9,4.9-10.9,10.8v2.4c0.5-0.4,1.1-0.7,1.7-0.7c1.4,0,2.5,1.1,2.5,2.5
	c0,1.4-1.1,2.5-2.5,2.5c-0.5,0-0.9-0.1-1.3-0.4c1.3,4.7,5.6,7.9,10.5,7.9h37.2c6,0,10.9-4.9,10.9-10.9l0,0v-3.5
	C117.4,45.5,112.5,40.7,106.5,40.7z M108.5,50.7c0-0.4,0.3-0.7,0.7-0.7h2.5c0.4,0,0.7,0.3,0.7,0.7c0,0,0,0,0,0v2.4
	c0,0.2-0.1,0.4-0.3,0.6l-1.4,1.3c-0.2,0.1-0.4,0.1-0.6,0l-1.4-1.3c-0.2-0.1-0.3-0.3-0.3-0.6L108.5,50.7z M99.4,41.1
	c1.9,0,3.6,1.2,4.1,3c0.2,0.5,0.3,1,0.3,1.4c0,0.8-0.2,1.5-0.6,2.2c-1.2,2.1-3.9,2.8-6,1.6c-2.1-1.2-2.8-3.9-1.6-6
	C96.3,42,97.8,41.1,99.4,41.1L99.4,41.1z M76.4,41.1c2.4,0,4.4,2,4.4,4.4c0,2.4-2,4.4-4.4,4.4c0,0,0,0,0,0c-1.6,0-3-0.8-3.8-2.2
	C72.2,47,72,46.2,72,45.5C72,43,74,41.1,76.4,41.1L76.4,41.1z M65.4,63.6c-1.4,0-2.5-1.1-2.5-2.5s1.1-2.5,2.5-2.5S68,59.7,68,61
	c0,0,0,0,0,0C68,62.4,66.9,63.6,65.4,63.6L65.4,63.6z M65.4,52.9c-1.4,0-2.5-1.1-2.5-2.5s1.1-2.5,2.5-2.5S68,49,68,50.4c0,0,0,0,0,0
	C68,51.8,66.9,52.9,65.4,52.9C65.5,52.9,65.5,52.9,65.4,52.9L65.4,52.9z M71.4,58.2c-0.2,0-0.4,0.1-0.6,0.1
	c-1.4-0.1-2.5-1.3-2.4-2.7c0.1-1.3,1.1-2.3,2.4-2.4c0.4,0,0.8,0.1,1.1,0.3c1.2,0.6,1.7,2.2,1.1,3.4C72.7,57.5,72.1,58,71.4,58.2
	L71.4,58.2z M107.7,57.7h-2.4c-0.4,0-0.7-0.3-0.7-0.7v-2.5c0-0.4,0.3-0.7,0.7-0.7h2.4c0.2,0,0.4,0.1,0.5,0.3l1.3,1.4
	c0.1,0.2,0.1,0.4,0,0.6l-1.3,1.4C108.1,57.6,107.9,57.7,107.7,57.7L107.7,57.7z M112.3,60.8c0,0.4-0.3,0.7-0.7,0.7c0,0,0,0,0,0h-2.5
	c-0.4,0-0.7-0.3-0.7-0.7v-2.4c0-0.2,0.1-0.4,0.3-0.5l1.4-1.3c0.2-0.1,0.4-0.1,0.6,0l1.4,1.3c0.2,0.1,0.3,0.3,0.3,0.5L112.3,60.8z
	 M116.2,57c0,0.4-0.3,0.7-0.7,0.7c0,0,0,0,0,0h-2.4c-0.2,0-0.4-0.1-0.5-0.3l-1.2-1.3c-0.1-0.2-0.1-0.4,0-0.6l1.3-1.4
	c0.1-0.2,0.3-0.3,0.5-0.3h2.4c0.4,0,0.7,0.3,0.7,0.7c0,0,0,0,0,0L116.2,57z"/>
<path class="st0" d="M117.5,24.4h-1.6c-2.7,0-5.1,1.6-6.1,4.1l-5,12.2l-0.3,0.6l-0.7,1.6c-0.2,0.4-0.3,0.7-0.4,1.1
	c0.2,0.5,0.3,1,0.3,1.4c0,0.8-0.2,1.5-0.6,2.2c0,0.1,0,0.2,0,0.3l0.3,2.7l1.8,15v0.1c0,1.9,1.6,3.4,3.5,3.4h5.4
	c1.5,0,2.1-1.1,2.8-2.4c0.4-0.8,0.8-1.7,1-2.6l3.9-15.3c0.8-3,1.1-6.1,1.1-9.2v-9.2c0.4-3-1.6-5.7-4.6-6.2
	C118,24.4,117.7,24.4,117.5,24.4z M116.3,57c0,0.4-0.3,0.7-0.7,0.7c0,0,0,0,0,0h-2.4c-0.2,0-0.4-0.1-0.5-0.3l-1.3-1.4
	c-0.1-0.2-0.1-0.4,0-0.6l1.3-1.4c0.1-0.2,0.3-0.3,0.5-0.3h2.4c0.4,0,0.7,0.3,0.7,0.7c0,0,0,0,0,0V57z M108.5,50.6
	c0-0.4,0.3-0.7,0.7-0.7h2.5c0.4,0,0.7,0.3,0.7,0.7c0,0,0,0,0,0v2.4c0,0.2-0.1,0.4-0.3,0.6l-1.4,1.3c-0.2,0.1-0.4,0.1-0.6,0l-1.3-1.3
	c-0.2-0.1-0.3-0.3-0.3-0.6L108.5,50.6z M110.7,56.6l1.4,1.3c0.2,0.1,0.3,0.3,0.3,0.5v2.4c0,0.4-0.3,0.7-0.7,0.7c0,0,0,0,0,0h-2.5
	c-0.4,0-0.7-0.3-0.7-0.7v-2.4c0-0.2,0.1-0.4,0.3-0.5l1.4-1.3C110.3,56.5,110.6,56.5,110.7,56.6L110.7,56.6z M104.6,57v-2.5
	c0-0.4,0.3-0.7,0.7-0.7h2.4c0.2,0,0.4,0.1,0.5,0.3l1.3,1.4c0.1,0.2,0.1,0.4,0,0.6l-1.3,1.4c-0.1,0.2-0.3,0.3-0.5,0.3h-2.4
	C104.9,57.7,104.6,57.4,104.6,57L104.6,57z"/>
<path class="st0" d="M104.6,41.3c-0.2-0.2-0.4-0.4-0.5-0.6c-2.7-2.6-6.9-2.5-9.5,0.2c-2.6,2.7-2.5,6.9,0.2,9.5
	c1.3,1.2,2.9,1.9,4.7,1.9c1.5,0,3-0.5,4.2-1.5C106.4,48.5,106.9,44.3,104.6,41.3C104.6,41.3,104.5,41.3,104.6,41.3L104.6,41.3z
	 M103.2,47.7c-1.2,2.1-3.9,2.8-6,1.6c-2.1-1.2-2.8-3.9-1.6-6c1.2-2.1,3.9-2.8,6-1.6c0.9,0.5,1.6,1.4,2,2.4c0.2,0.5,0.3,1,0.3,1.4
	C103.8,46.3,103.6,47,103.2,47.7L103.2,47.7z"/>
<path class="st0" d="M72,45.5c0-0.5,0.1-1,0.3-1.5c-0.1-0.4-0.2-0.7-0.4-1.1l-0.7-1.6L71,40.7l-5-12.2c-1-2.5-3.4-4.1-6.1-4.1h-1.6
	c-3,0-5.4,2.4-5.4,5.5c0,0.3,0,0.5,0.1,0.8v9.2c0,3.1,0.4,6.2,1.1,9.2l3.8,15.3c0.2,0.9,0.6,1.8,1,2.6c0.7,1.3,1.3,2.4,2.8,2.4H67
	c1.9,0,3.4-1.5,3.5-3.4v-0.1l0.9-7.6c-0.2,0-0.4,0.1-0.6,0.1c-1.4-0.1-2.5-1.3-2.4-2.7c0.1-1.3,1.1-2.3,2.4-2.4
	c0.4,0,0.8,0.1,1.1,0.3l0.3-2.8l0.3-2.7c0-0.1,0-0.2,0-0.3C72.2,47,72,46.3,72,45.5z M63,61.1c0-1.4,1.1-2.5,2.5-2.5
	s2.5,1.1,2.5,2.5s-1.1,2.5-2.5,2.5c0,0,0,0,0,0C64.1,63.6,63,62.5,63,61.1z M65.5,52.9c-1.4,0-2.5-1.1-2.5-2.5s1.1-2.5,2.5-2.5
	S68,49,68,50.4c0,0,0,0,0,0C68,51.8,66.9,52.9,65.5,52.9C65.5,52.9,65.5,52.9,65.5,52.9L65.5,52.9z M57.6,55.7
	c0-1.4,1.1-2.5,2.5-2.5c1.4,0,2.5,1.1,2.5,2.5c0,1.4-1.1,2.5-2.5,2.5c-0.5,0-0.9-0.1-1.3-0.4C58.1,57.4,57.6,56.6,57.6,55.7
	L57.6,55.7z"/>
<path class="st0" d="M81.1,40.7c-2.6-2.5-6.7-2.5-9.3,0c-0.2,0.2-0.4,0.4-0.5,0.6c-2.3,2.9-1.9,7.1,1,9.4c1.2,1,2.7,1.5,4.2,1.5
	c3.7,0,6.7-3,6.7-6.7C83.2,43.7,82.4,41.9,81.1,40.7L81.1,40.7z M76.4,49.9c-1.6,0-3-0.8-3.8-2.2C72.2,47,72,46.3,72,45.5
	c0-2.4,2-4.4,4.4-4.4c2.4,0,4.4,2,4.4,4.4C80.8,47.9,78.9,49.9,76.4,49.9z"/>
<path class="st0" d="M78.4,114.7l-0.6-1.1L60.4,83.5l-0.6-1.1c-3-5.2-9.6-7-14.8-4c0,0,0,0,0,0l-3,1.7c-5.2,3-7,9.6-4,14.8
	c0,0,0,0,0,0l0.8,1.5l0.4,0.7l4.7,8.1l6.8,11.8l4.7,8.1l0,0l0.4,0.7l0,0l0.8,1.5c3,5.2,9.6,7,14.8,4c0,0,0,0,0,0l2-1.2
	c-1.3-0.4-2.1-1.8-1.6-3.2c0.4-1.3,1.8-2.1,3.2-1.6c0.6,0.2,1.1,0.6,1.4,1.1c0.2,0.4,0.3,0.9,0.3,1.3
	C80.2,124.3,80.8,118.9,78.4,114.7z M48.7,86.8l0.6-1.8c0.1-0.2,0.3-0.3,0.5-0.3l1.9,0.4c0.2,0,0.4,0.2,0.5,0.3l1.2,2.1
	c0.2,0.3,0.1,0.8-0.2,1c0,0,0,0,0,0l-2.2,1.3c-0.3,0.2-0.8,0.1-1-0.2c0,0,0,0,0,0l-1.1-2.1C48.7,87.3,48.6,87,48.7,86.8L48.7,86.8z
	 M50.1,81.5c0-0.2,0.2-0.4,0.3-0.5l2.1-1.2c0.3-0.2,0.8-0.1,1,0.2c0,0,0,0,0,0.1l1.3,2.1c0.2,0.3,0.1,0.8-0.2,1c0,0,0,0,0,0
	l-2.1,1.2c-0.2,0.1-0.4,0.1-0.6,0L50,83.9c-0.2-0.1-0.3-0.3-0.3-0.5L50.1,81.5z M45.1,79.7l2.1-1.2c0.3-0.2,0.8-0.1,1,0.2
	c0,0,0,0,0,0l1.2,2.1c0.1,0.2,0.1,0.4,0.1,0.6L49,83.2c-0.1,0.2-0.3,0.3-0.5,0.3L46.6,83c-0.2,0-0.4-0.2-0.5-0.4l-1.3-2.1
	C44.6,80.3,44.7,79.9,45.1,79.7C45.1,79.7,45.1,79.7,45.1,79.7L45.1,79.7z M43.7,85l2.1-1.2c0.2-0.1,0.4-0.1,0.6,0l1.8,0.6
	c0.2,0.1,0.3,0.3,0.3,0.5l-0.4,1.9c0,0.2-0.2,0.4-0.4,0.5l-2.1,1.2c-0.3,0.2-0.8,0.1-1-0.2c0,0,0,0,0,0L43.4,86
	C43.2,85.6,43.3,85.2,43.7,85C43.6,85,43.7,85,43.7,85L43.7,85z M42,101c-0.9-1.6-0.7-3.7,0.5-5.1c0.3-0.4,0.7-0.7,1.1-0.9
	c2.1-1.2,4.8-0.5,6,1.6c1.2,2.1,0.5,4.8-1.6,6C45.9,103.8,43.2,103.1,42,101C42,100.9,42,100.9,42,101L42,101z M53.4,120.9
	c-1.2-2.1-0.5-4.8,1.6-6c2.1-1.2,4.8-0.5,6,1.6c1.2,2.1,0.5,4.8-1.6,6c-0.4,0.2-0.9,0.4-1.4,0.5C56.2,123.3,54.3,122.5,53.4,120.9z
	 M68.2,127.9c-1.2,0.7-2.7,0.3-3.4-0.9c-0.7-1.2-0.3-2.7,0.9-3.4c1.2-0.7,2.7-0.3,3.4,0.9c0,0,0,0,0,0
	C69.8,125.6,69.4,127.2,68.2,127.9C68.2,127.9,68.2,127.9,68.2,127.9L68.2,127.9z M70.2,120.6c-1.2,0.7-2.7,0.3-3.4-0.9c0,0,0,0,0,0
	c-0.2-0.3-0.3-0.7-0.3-1.1c-0.1-1.4,1-2.6,2.4-2.6c0.7,0,1.4,0.2,2,0.8c0.1,0.1,0.3,0.3,0.4,0.5C71.8,118.3,71.4,119.9,70.2,120.6
	C70.2,120.6,70.2,120.6,70.2,120.6L70.2,120.6z M77.5,122.6c-1.2,0.7-2.7,0.3-3.4-0.9s-0.3-2.7,0.9-3.4c1.2-0.7,2.7-0.3,3.4,0.9
	C79.1,120.3,78.6,121.9,77.5,122.6L77.5,122.6z"/>
<path class="st0" d="M61.6,78.8l-2.7-4.6c-0.8-1.3-2-1.3-3.4-1.3c-0.9,0-1.8,0.2-2.7,0.4l-15.1,4.4c-3,0.9-5.9,2.1-8.6,3.6l-7.9,4.6
	c-2.8,1.1-4.2,4.3-3.1,7.1c0.1,0.3,0.2,0.5,0.4,0.7l0.8,1.4c1.3,2.3,3.9,3.6,6.6,3.2l13-1.8l0.6-0.1l0,0l1.8-0.2
	c0.4-0.1,0.8-0.1,1.2-0.2c0.3-0.4,0.7-0.7,1.1-0.9c0.7-0.4,1.4-0.6,2.2-0.6l0.3-0.2l2.2-1.6l12.1-9h0.1C62,82.6,62.6,80.5,61.6,78.8
	C61.6,78.8,61.6,78.8,61.6,78.8z M45.1,79.7l2.1-1.2c0.3-0.2,0.8-0.1,1,0.2c0,0,0,0,0,0l1.2,2.1c0.1,0.2,0.1,0.4,0.1,0.6l-0.6,1.8
	c-0.1,0.2-0.3,0.3-0.5,0.3L46.6,83c-0.2,0-0.4-0.2-0.5-0.4l-1.3-2.1C44.6,80.3,44.7,79.9,45.1,79.7C45.1,79.7,45.1,79.7,45.1,79.7
	L45.1,79.7z M48,86.7c0,0.2-0.2,0.4-0.4,0.5l-2.1,1.2c-0.3,0.2-0.8,0.1-1-0.2c0,0,0,0,0,0l-1.2-2.2c-0.2-0.3-0.1-0.8,0.2-1
	c0,0,0,0,0,0l2.1-1.2c0.2-0.1,0.4-0.1,0.6,0l1.8,0.6c0.2,0.1,0.3,0.3,0.3,0.5L48,86.7z M53,88.5l-2.2,1.3c-0.3,0.2-0.8,0.1-1-0.2
	c0,0,0,0,0,0l-1.1-2.1c-0.1-0.2-0.1-0.4,0-0.6l0.6-1.8c0.1-0.2,0.3-0.3,0.5-0.3l1.9,0.4c0.2,0,0.4,0.2,0.5,0.3l1.2,2.1
	C53.6,87.9,53.5,88.3,53,88.5C53.1,88.5,53.1,88.5,53,88.5L53,88.5z M54.5,83.2l-2.1,1.2c-0.2,0.1-0.4,0.1-0.6,0L50,83.9
	c-0.2-0.1-0.3-0.3-0.3-0.5l0.4-1.8c0-0.2,0.2-0.4,0.3-0.5l2.1-1.2c0.3-0.2,0.8-0.1,1,0.2c0,0,0,0,0,0.1l1.3,2.1
	C54.9,82.6,54.8,83,54.5,83.2L54.5,83.2z"/>
<path class="st0" d="M51.5,95.5c-1.9-3.2-6-4.3-9.2-2.5c-1.3,0.8-2.4,2-2.9,3.4l0,0c-0.1,0.3-0.2,0.5-0.3,0.8
	c-0.9,3.5,1.2,7.1,4.7,8.1c3.6,1,7.3-1,8.3-4.6C52.7,98.9,52.5,97,51.5,95.5L51.5,95.5z M47.9,102.6c-2.1,1.2-4.8,0.5-6-1.6
	c-0.9-1.6-0.7-3.7,0.5-5.1c0.3-0.4,0.7-0.7,1.1-0.9c2.1-1.2,4.8-0.5,6,1.6C50.8,98.7,50.1,101.4,47.9,102.6L47.9,102.6z"/>
<path class="st0" d="M85.2,119.6l-2.7-4.6c-0.9-1.6-3-2.2-4.7-1.3h-0.1l-7,3c0.1,0.1,0.3,0.3,0.4,0.5c0.7,1.2,0.3,2.7-0.9,3.4
	c-1.2,0.7-2.7,0.3-3.4-0.9l0,0c-0.2-0.3-0.3-0.7-0.3-1.1l-2.6,1.1l-2.5,1.1l-0.3,0.1c-0.4,0.7-0.9,1.2-1.6,1.6
	c-0.4,0.2-0.9,0.4-1.4,0.5c-0.3,0.3-0.6,0.6-0.8,0.9l-1.1,1.4l-0.4,0.5l0,0l-8,10.4c-1.6,2.1-1.8,5-0.5,7.3l0.8,1.4
	c1.5,2.6,4.8,3.5,7.4,2c0.2-0.1,0.5-0.3,0.7-0.5l8-4.5c2.7-1.5,5.2-3.4,7.5-5.6l11.2-10.9c0.7-0.6,1.2-1.4,1.7-2.2
	C85.3,121.9,85.9,120.9,85.2,119.6z M74.9,118.2c1.2-0.7,2.7-0.3,3.4,0.9s0.3,2.7-0.9,3.4c-1.2,0.7-2.7,0.3-3.4-0.9c0,0,0,0,0,0
	C73.3,120.4,73.7,118.9,74.9,118.2C74.9,118.2,74.9,118.2,74.9,118.2L74.9,118.2z M65.7,123.5c1.2-0.7,2.7-0.3,3.4,0.9
	s0.3,2.7-0.9,3.4c-1.2,0.7-2.7,0.3-3.4-0.9C64,125.8,64.5,124.2,65.7,123.5C65.7,123.5,65.7,123.5,65.7,123.5L65.7,123.5z
	 M76.7,127.7c0,1.4-1.2,2.5-2.6,2.4c-0.2,0-0.5,0-0.7-0.1c-1.3-0.4-2.1-1.8-1.6-3.2c0.4-1.3,1.8-2.1,3.2-1.6
	c0.6,0.2,1.1,0.6,1.4,1.1C76.6,126.8,76.7,127.3,76.7,127.7L76.7,127.7z"/>
<path class="st0" d="M63,115.3c-1.8-3.2-5.9-4.3-9.1-2.5c-1.6,0.9-2.7,2.4-3.2,4.2c-0.9,3.5,1.2,7.1,4.7,8.1l0,0
	c0.3,0.1,0.5,0.1,0.8,0.2c3.7,0.6,7.1-1.9,7.7-5.6C64.1,118.2,63.8,116.6,63,115.3L63,115.3z M59.4,122.5c-0.4,0.2-0.9,0.4-1.4,0.5
	c-2.3,0.4-4.6-1.1-5-3.5s1.1-4.6,3.5-5c2.3-0.4,4.6,1.1,5,3.5C61.8,119.8,61,121.6,59.4,122.5z"/>
<path class="st0" d="M125.1,23.5C89.5,3,44.1,15.2,23.6,50.7s-8.3,81,27.2,101.5c35.5,20.5,81,8.3,101.5-27.2
	C172.7,89.5,160.6,44.1,125.1,23.5z M151.2,124.5c-20.2,35-64.9,47-99.9,26.8s-47-64.9-26.8-99.9s64.9-47,99.9-26.8c0,0,0,0,0,0
	C159.4,44.8,171.4,89.5,151.2,124.5z"/>
<path class="st0" d="M131.2,12.7C89.7-11.2,36.7,3,12.7,44.5S3,139,44.5,163s94.6,9.7,118.5-31.8c0,0,0,0,0,0
	C186.9,89.7,172.7,36.7,131.2,12.7z M154.1,126.1c-21.1,36.6-67.9,49.1-104.5,28S0.5,86.2,21.6,49.6s67.9-49.1,104.5-28c0,0,0,0,0,0
	C162.6,42.8,175.2,89.5,154.1,126.1L154.1,126.1z"/>
</svg>
