<svg id="圖層_1" data-name="圖層 1" xmlns="http://www.w3.org/2000/svg" viewBox="0 0 175.63 175.61"><defs><style>.cls-1{fill:#9ba89f;}</style></defs><title>Logo_B</title><path class="cls-1" d="M133.79,80.19l-2-1.19a2.5,2.5,0,0,1-.27,1.82,2.52,2.52,0,0,1-4.37-2.52,2.48,2.48,0,0,1,1-1A10.84,10.84,0,0,0,116,82.47l-.61,1L98,113.58l-.61,1.06a10.87,10.87,0,0,0,4,14.83l3,1.73a10.86,10.86,0,0,0,14.83-4h0l.84-1.46.4-.69h0l4.66-8.06,6.8-11.78h0l4.66-8.07.39-.68.85-1.47A10.84,10.84,0,0,0,133.79,80.19Zm-4.74,5.39A2.52,2.52,0,1,1,130,89,2.53,2.53,0,0,1,129.05,85.58Zm-2.92,4.48a2.36,2.36,0,0,1-.81.85,2.52,2.52,0,0,1-3.79-2.83,3,3,0,0,1,.24-.55,2.52,2.52,0,0,1,4.36,2.52Zm-6.32-9.81a2.52,2.52,0,0,1,3.44-.92h0a2.52,2.52,0,0,1-2.51,4.37h0A2.52,2.52,0,0,1,119.81,80.25Zm-11.43,39.39-1.19,2.07a.71.71,0,0,1-.51.35l-1.84.41a.48.48,0,0,1-.52-.3l-.57-1.8a.72.72,0,0,1,0-.61l1.2-2.07a.7.7,0,0,1,.95-.29l.05,0,2.15,1.24a.71.71,0,0,1,.28,1Zm-9.67,2.59a.71.71,0,0,1-.28-1l0,0,1.25-2.15a.7.7,0,0,1,.95-.29l.05,0,2.07,1.19a.73.73,0,0,1,.34.51l.42,1.84a.48.48,0,0,1-.3.52l-1.81.57a.77.77,0,0,1-.61,0Zm5.74,4.22-1.19,2a.72.72,0,0,1-1,.27h0l-2.16-1.25a.71.71,0,0,1-.28-1l0,0,1.2-2.07a.75.75,0,0,1,.5-.35l1.85-.41a.49.49,0,0,1,.52.3l.56,1.81a.69.69,0,0,1,0,.71Zm5.35-1.51-1.24,2.15a.71.71,0,0,1-1,.29l0,0-2.07-1.2a.69.69,0,0,1-.35-.5l-.41-1.85a.48.48,0,0,1,.3-.52l1.8-.56a.69.69,0,0,1,.61,0l2.07,1.19a.71.71,0,0,1,.33.95l0,.07Zm12.56-4.1a4.36,4.36,0,0,1-4.63,2.11,4.17,4.17,0,0,1-1.38-.5,4.4,4.4,0,0,1,4.4-7.62h0a4.39,4.39,0,0,1,1.62,6v0ZM133.82,101A4.39,4.39,0,1,1,130,94.4h0a4.34,4.34,0,0,1,2.19.59,4.46,4.46,0,0,1,1.13.93,4.38,4.38,0,0,1,.48,5.07Z" transform="translate(-0.02 -0.02)"/><path class="cls-1" d="M128.05,136.15l-8-10.37-.4-.52-1.09-1.41a11.45,11.45,0,0,0-.78-.9,4.17,4.17,0,0,1-1.38-.5,4.38,4.38,0,0,1-1.6-1.6l-.31-.15L112,119.61l-13.89-6H98a3.49,3.49,0,0,0-4.69,1.31l-2.68,4.65c-.75,1.3-.14,2.36.62,3.63A10.44,10.44,0,0,0,93,125.35l11.33,10.94a37.49,37.49,0,0,0,7.44,5.58l8,4.55a5.46,5.46,0,0,0,8.12-1.55l.79-1.37A6.58,6.58,0,0,0,128.05,136.15ZM109.8,124.94l-1.24,2.15a.71.71,0,0,1-1,.29l0,0-2.07-1.2a.69.69,0,0,1-.35-.5l-.41-1.85a.48.48,0,0,1,.3-.52l1.8-.56a.69.69,0,0,1,.61,0l2.07,1.19a.71.71,0,0,1,.33.95l0,.07Zm-7.51,3.84-2.16-1.25a.71.71,0,0,1-.28-1l0,0,1.2-2.07a.75.75,0,0,1,.5-.35l1.85-.41a.49.49,0,0,1,.52.3l.56,1.81a.69.69,0,0,1,0,.61l-1.24,2.05a.72.72,0,0,1-1,.31h0Zm1.51-9,1.2-2.07a.7.7,0,0,1,.95-.29l.05,0,2.15,1.24a.71.71,0,0,1,.28,1l0,0-1.19,2.07a.71.71,0,0,1-.51.35l-1.84.41a.48.48,0,0,1-.52-.3l-.57-1.8a.72.72,0,0,1,0-.66Zm-5.35,1.5,1.25-2.15a.7.7,0,0,1,.95-.29l.05,0,2.07,1.19a.73.73,0,0,1,.34.51l.42,1.84a.48.48,0,0,1-.3.52l-1.81.57a.77.77,0,0,1-.61,0l-2.07-1.2a.71.71,0,0,1-.34-.94l.05-.1Z" transform="translate(-0.02 -0.02)"/><path class="cls-1" d="M125.06,117a6.71,6.71,0,0,0-12.32-1.74h0a6.71,6.71,0,0,0,6.86,10,7.1,7.1,0,0,0,.8-.17h0a6.62,6.62,0,0,0,4.66-8.07Zm-7.33,5.93a4.17,4.17,0,0,1-1.38-.5,4.4,4.4,0,0,1,4.4-7.62h0a4.39,4.39,0,0,1,1.61,6h0a4.36,4.36,0,0,1-4.63,2.12Z" transform="translate(-0.02 -0.02)"/><path class="cls-1" d="M154.6,85.86l-7.91-4.62a38,38,0,0,0-8.56-3.65L123,73.24a10.4,10.4,0,0,0-2.72-.4c-1.47,0-2.7,0-3.45,1.27l-2.68,4.65a3.48,3.48,0,0,0,1.21,4.72h.06L121.53,88a3,3,0,0,1,.24-.55A2.52,2.52,0,0,1,126.13,90h0a2.36,2.36,0,0,1-.81.85l2.21,1.64,2.21,1.65.27.19h0a4.34,4.34,0,0,1,2.19.59,4.46,4.46,0,0,1,1.13.93,7.58,7.58,0,0,0,1.17.24l1.77.24.63.09,13,1.78A6.59,6.59,0,0,0,156.49,95l.8-1.38a5.45,5.45,0,0,0-2.69-7.75ZM130,89a2.52,2.52,0,1,1,3.45-.93A2.54,2.54,0,0,1,130,89Zm-5.79-6.26a2.51,2.51,0,0,1-3.43.93h0a2.52,2.52,0,1,1,2.51-4.36h0A2.52,2.52,0,0,1,124.18,82.77Zm2.92-4.47a2.48,2.48,0,0,1,1-1,2.47,2.47,0,0,1,3.65,1.63h0a2.5,2.5,0,0,1-.27,1.82,2.51,2.51,0,0,1-4.38-2.45Z" transform="translate(-0.02 -0.02)"/><path class="cls-1" d="M136.52,97.16c-.07-.26-.15-.52-.24-.77a6.71,6.71,0,0,0-12.08-1,6.71,6.71,0,0,0,7.66,9.81h0a6.62,6.62,0,0,0,4.66-8.08Zm-8.71,5.44a4.39,4.39,0,0,1,2.2-8.2h0a4.34,4.34,0,0,1,2.19.59,4.46,4.46,0,0,1,1.13.93,4.39,4.39,0,0,1-5.52,6.68Z" transform="translate(-0.02 -0.02)"/><path class="cls-1" d="M106.45,40.64H69.24A10.85,10.85,0,0,0,58.39,51.47v2.37a2.47,2.47,0,0,1,1.7-.67,2.52,2.52,0,0,1,2.52,2.52h0a2.52,2.52,0,0,1-2.51,2.53h0a2.51,2.51,0,0,1-1.3-.36A10.84,10.84,0,0,0,69.24,65.8h37.21A10.85,10.85,0,0,0,117.3,55h0V51.47A10.85,10.85,0,0,0,106.45,40.64Zm2,10a.71.71,0,0,1,.71-.71h2.5a.71.71,0,0,1,.72.7h0V53a.72.72,0,0,1-.27.56l-1.39,1.27a.46.46,0,0,1-.6,0l-1.39-1.27a.71.71,0,0,1-.26-.56Zm-9.13-9.53a4.38,4.38,0,0,1,4.15,3,4.1,4.1,0,0,1,.19,1.36,4.25,4.25,0,0,1-.6,2.2,4.4,4.4,0,1,1-3.81-6.6h.05Zm-22.92,0a4.4,4.4,0,0,1,0,8.8,4.35,4.35,0,0,1-3.8-2.2,4.25,4.25,0,0,1-.6-2.2,4.45,4.45,0,0,1,4.38-4.44Zm-11,22.5a2.52,2.52,0,0,1-2.52-2.52h0a2.52,2.52,0,0,1,2.52-2.52h0a2.52,2.52,0,0,1,2.52,2.52h0a2.52,2.52,0,0,1-2.49,2.48Zm0-10.67a2.52,2.52,0,0,1-2.52-2.52h0A2.52,2.52,0,0,1,65.4,47.9h0a2.52,2.52,0,0,1,2.52,2.52h0a2.52,2.52,0,0,1-2.49,2.48Zm5.92,5.27a2.32,2.32,0,0,1-.59.07,2.52,2.52,0,0,1-2.52-2.52h0a2.52,2.52,0,0,1,2.52-2.52h0a2.44,2.44,0,0,1,1.15.28,2.5,2.5,0,0,1-.53,4.66Zm36.3-.49h-2.39a.71.71,0,0,1-.71-.71h0V54.47a.71.71,0,0,1,.71-.71h2.43a.7.7,0,0,1,.55.27l1.28,1.39a.48.48,0,0,1,0,.6l-1.28,1.39a.72.72,0,0,1-.55.27Zm4.69,3.17a.71.71,0,0,1-.71.71h-2.49a.71.71,0,0,1-.71-.71h0V58.47a.69.69,0,0,1,.26-.55L110,56.64a.48.48,0,0,1,.6,0L112,57.92a.7.7,0,0,1,.27.55ZM116.19,57a.71.71,0,0,1-.71.71h-2.4a.74.74,0,0,1-.55-.26l-1.28-1.39a.48.48,0,0,1,0-.6l1.28-1.39a.72.72,0,0,1,.55-.27h2.39a.71.71,0,0,1,.72.7h0Z" transform="translate(-0.02 -0.02)"/><path class="cls-1" d="M117.41,24.39h-1.59a6.59,6.59,0,0,0-6.1,4.09l-5,12.16-.25.61-.67,1.65a10.57,10.57,0,0,0-.39,1.12,4.1,4.1,0,0,1,.25,1.45,4.25,4.25,0,0,1-.6,2.2V48l.32,2.72,1.77,15v.07a3.48,3.48,0,0,0,3.48,3.41H114c1.5,0,2.11-1.06,2.83-2.35a11.28,11.28,0,0,0,1-2.56L121.63,49a37.46,37.46,0,0,0,1.12-9.24V30.61a5.45,5.45,0,0,0-5.34-6.22ZM116.22,57a.71.71,0,0,1-.71.71h-2.4a.74.74,0,0,1-.55-.26L111.28,56a.48.48,0,0,1,0-.6L112.56,54a.72.72,0,0,1,.55-.27h2.39a.71.71,0,0,1,.72.7h0Zm-7.79-6.37a.71.71,0,0,1,.71-.71h2.52a.71.71,0,0,1,.72.7h0V53a.72.72,0,0,1-.27.56l-1.39,1.27a.46.46,0,0,1-.6,0l-1.39-1.27a.71.71,0,0,1-.26-.56Zm2.25,6,1.39,1.28a.7.7,0,0,1,.27.55v2.39a.71.71,0,0,1-.71.71h-2.49a.71.71,0,0,1-.71-.71h0V58.47a.69.69,0,0,1,.26-.55l1.39-1.28a.48.48,0,0,1,.58,0Zm-6.13.34V54.47a.71.71,0,0,1,.71-.71h2.4a.7.7,0,0,1,.55.27l1.28,1.39a.48.48,0,0,1,0,.6l-1.28,1.39a.72.72,0,0,1-.55.26h-2.39a.71.71,0,0,1-.72-.7h0Z" transform="translate(-0.02 -0.02)"/><path class="cls-1" d="M104.51,41.25a5.31,5.31,0,0,0-.55-.61A6.71,6.71,0,1,0,99.3,52.18a6.58,6.58,0,0,0,4.16-1.46,6.68,6.68,0,0,0,1-9.47Zm-1.4,6.42a4.42,4.42,0,1,1,.34-3.6,4.1,4.1,0,0,1,.21,1.4,4.25,4.25,0,0,1-.55,2.2Z" transform="translate(-0.02 -0.02)"/><path class="cls-1" d="M72,45.47A4.39,4.39,0,0,1,72.23,44a8.53,8.53,0,0,0-.38-1.11l-.67-1.65-.25-.61-5-12.16a6.6,6.6,0,0,0-6.1-4.09H58.24a5.45,5.45,0,0,0-5.39,6.25V39.8A37.93,37.93,0,0,0,54,49l3.81,15.28a10.42,10.42,0,0,0,1,2.56c.71,1.29,1.33,2.35,2.83,2.35H67a3.48,3.48,0,0,0,3.48-3.41v-.07l.89-7.58a2.32,2.32,0,0,1-.59.07,2.52,2.52,0,0,1-2.52-2.52h0a2.52,2.52,0,0,1,2.52-2.52h0a2.44,2.44,0,0,1,1.15.28l.32-2.75L72.54,48v-.33A4.25,4.25,0,0,1,72,45.47ZM62.91,61.05a2.52,2.52,0,0,1,2.52-2.52h0A2.52,2.52,0,0,1,68,61h0a2.52,2.52,0,0,1-2.52,2.52h0a2.52,2.52,0,0,1-2.52-2.52Zm2.52-8.15a2.52,2.52,0,0,1-2.52-2.52h0a2.52,2.52,0,0,1,2.52-2.52h0A2.52,2.52,0,0,1,68,50.38h0a2.52,2.52,0,0,1-2.52,2.52Zm-7.86,2.81a2.54,2.54,0,0,1,2.52-2.52,2.52,2.52,0,0,1,2.52,2.52h0a2.52,2.52,0,0,1-2.51,2.53h0a2.51,2.51,0,0,1-1.3-.36A2.55,2.55,0,0,1,57.57,55.71Z" transform="translate(-0.02 -0.02)"/><path class="cls-1" d="M81,40.64a6.7,6.7,0,0,0-9.31,0,4.53,4.53,0,0,0-.55.61,6.71,6.71,0,0,0,5.19,10.93,6.71,6.71,0,0,0,6.71-6.71h0A6.7,6.7,0,0,0,81,40.64Zm-4.66,9.23a4.35,4.35,0,0,1-3.8-2.2,4.25,4.25,0,0,1-.6-2.2,4.4,4.4,0,1,1,4.4,4.4Z" transform="translate(-0.02 -0.02)"/><path class="cls-1" d="M78.33,114.64l-.61-1.06L60.34,83.47l-.61-1.06a10.86,10.86,0,0,0-14.83-4h0l-3,1.74A10.85,10.85,0,0,0,37.9,95h0l.84,1.46.4.69,4.66,8.07L50.61,117,55.27,125h0l.4.68h0l.84,1.46a10.85,10.85,0,0,0,14.81,4h0L73.38,130a2.52,2.52,0,1,1,2.94-3.67h0a2.43,2.43,0,0,1,.33,1.32A10.83,10.83,0,0,0,78.33,114.64ZM48.66,86.79,49.22,85a.49.49,0,0,1,.52-.3l1.85.42a.71.71,0,0,1,.5.34l1.2,2.07a.71.71,0,0,1-.22,1l0,0-2.16,1.25a.72.72,0,0,1-1-.24v0l-1.19-2.07A.69.69,0,0,1,48.66,86.79Zm1.42-5.29a.73.73,0,0,1,.34-.51l2.07-1.19a.7.7,0,0,1,1,.21l0,.05,1.25,2.15a.71.71,0,0,1-.22,1l0,0-2.07,1.2a.77.77,0,0,1-.61.05L50,83.89a.48.48,0,0,1-.3-.52Zm-5-1.88,2.15-1.24a.71.71,0,0,1,1,.22l0,0,1.2,2.07a.72.72,0,0,1,.05.61l-.57,1.8a.48.48,0,0,1-.52.3L46.55,83a.71.71,0,0,1-.51-.35l-1.19-2.07a.71.71,0,0,1,.18-1Zm-1.42,5.3,2.07-1.19a.69.69,0,0,1,.61,0l1.8.56a.48.48,0,0,1,.3.52L48,86.66a.69.69,0,0,1-.35.5l-2.07,1.2a.72.72,0,0,1-1-.24v0l-1.24-2.16a.71.71,0,0,1,.19-1l.05,0Zm-1.75,16a4.37,4.37,0,0,1,.5-5.07,4.31,4.31,0,0,1,1.12-.94A4.4,4.4,0,1,1,41.88,101l0,0Zm11.47,19.86a4.38,4.38,0,1,1,6,1.63,4.12,4.12,0,0,1-1.37.5,4.38,4.38,0,0,1-4.68-2.08Zm14.8,7a2.51,2.51,0,0,1-3.43-.91h0a2.52,2.52,0,0,1,.91-3.45h0a2.54,2.54,0,0,1,2.57,4.37l-.1.06Zm2-7.29a2.51,2.51,0,0,1-3.43-.91h0a2.34,2.34,0,0,1-.33-1.13,2.52,2.52,0,0,1,4.34-1.87,2.15,2.15,0,0,1,.36.48,2.52,2.52,0,0,1-.92,3.44l-.11.06Zm7.29,2a1.79,1.79,0,1,0-.1,0h0Z" transform="translate(-0.02 -0.02)"/><path class="cls-1" d="M61.55,78.75,58.87,74.1c-.75-1.3-2-1.3-3.45-1.28a10.93,10.93,0,0,0-2.73.41L37.56,77.58A37,37,0,0,0,29,81.23l-7.91,4.61a5.45,5.45,0,0,0-2.72,7.8l.8,1.37a6.55,6.55,0,0,0,6.59,3.23l13-1.78.65-.09h0l1.76-.24a9.46,9.46,0,0,0,1.18-.23A4.31,4.31,0,0,1,43.47,95a4.44,4.44,0,0,1,2.21-.59l.26-.18,2.21-1.65,12.12-9h.06a3.48,3.48,0,0,0,1.24-4.76ZM45,79.62l2.15-1.24a.71.71,0,0,1,1,.22l0,0,1.2,2.07a.72.72,0,0,1,.05.61l-.57,1.8a.48.48,0,0,1-.52.3L46.5,83a.71.71,0,0,1-.51-.35L44.8,80.59A.71.71,0,0,1,45,79.62Zm2.95,7a.69.69,0,0,1-.35.5l-2.07,1.2a.72.72,0,0,1-1-.24v0L43.32,85.9a.71.71,0,0,1,.22-1l0,0,2.07-1.19a.69.69,0,0,1,.61,0l1.8.56a.48.48,0,0,1,.3.52Zm5,1.87-2.16,1.25a.72.72,0,0,1-1-.24v0l-1.19-2.07a.69.69,0,0,1,0-.61L49.19,85a.49.49,0,0,1,.52-.3l1.85.42a.71.71,0,0,1,.5.34l1.2,2.07a.71.71,0,0,1-.24,1Zm1.42-5.3-2.07,1.2a.77.77,0,0,1-.61.05l-1.81-.57a.48.48,0,0,1-.3-.52L50,81.51a.73.73,0,0,1,.34-.51l2.07-1.19a.7.7,0,0,1,1,.21l0,.05,1.25,2.15a.71.71,0,0,1-.25,1Z" transform="translate(-0.02 -0.02)"/><path class="cls-1" d="M51.49,95.47A6.72,6.72,0,0,0,42.32,93a6.63,6.63,0,0,0-2.9,3.41h0a6.44,6.44,0,0,0-.25.78,6.69,6.69,0,0,0,4.7,8.09,6.69,6.69,0,0,0,7.62-9.82Zm-3.61,7.17a4.39,4.39,0,0,1-5.5-6.69A4.31,4.31,0,0,1,43.5,95a4.38,4.38,0,1,1,4.38,7.58Z" transform="translate(-0.02 -0.02)"/><path class="cls-1" d="M85.1,119.54l-2.68-4.65a3.48,3.48,0,0,0-4.7-1.31h-.06l-7,3a2.15,2.15,0,0,1,.36.48,2.52,2.52,0,0,1-4.36,2.53h0a2.34,2.34,0,0,1-.33-1.13l-2.54,1.09-2.52,1.09-.3.14a4.39,4.39,0,0,1-1.61,1.62,4.12,4.12,0,0,1-1.37.5,7.48,7.48,0,0,0-.79.9L56.1,125.2l-.4.51h0l-8,10.37a6.57,6.57,0,0,0-.5,7.32l.79,1.38a5.45,5.45,0,0,0,8.11,1.54l8-4.54a37.65,37.65,0,0,0,7.45-5.58l11.33-10.94a10.5,10.5,0,0,0,1.71-2.16C85.24,121.9,85.85,120.84,85.1,119.54Zm-10.25-1.4a2.52,2.52,0,1,1-.93,3.44,2.52,2.52,0,0,1,.93-3.44Zm-9.24,5.33a2.52,2.52,0,0,1,2.53,4.36h0a2.51,2.51,0,0,1-3.43-.91h0a2.52,2.52,0,0,1,.91-3.45h0Zm11.05,4.21A2.49,2.49,0,0,1,73.42,130a2.52,2.52,0,1,1,2.94-3.67h0a2.43,2.43,0,0,1,.33,1.32Z" transform="translate(-0.02 -0.02)"/><path class="cls-1" d="M62.95,115.27A6.7,6.7,0,0,0,50.63,117a6.69,6.69,0,0,0,4.7,8.09h0a7.1,7.1,0,0,0,.8.17,6.62,6.62,0,0,0,4.4-.81,6.69,6.69,0,0,0,2.42-9.19Zm-3.61,7.17a4.12,4.12,0,0,1-1.37.5,4.06,4.06,0,1,1,1.37-.47Z" transform="translate(-0.02 -0.02)"/><path class="cls-1" d="M125,23.47A74.32,74.32,0,1,0,152.17,125,74.41,74.41,0,0,0,125,23.47ZM151.19,124.4a73.15,73.15,0,1,1-26.77-99.93,73.23,73.23,0,0,1,26.77,99.93Z" transform="translate(-0.02 -0.02)"/><path class="cls-1" d="M131.77,11.75a87.85,87.85,0,1,0,32.16,120A88,88,0,0,0,131.77,11.75Zm23.12,114.79A77.42,77.42,0,1,1,126.55,20.79,77.5,77.5,0,0,1,154.89,126.54Z" transform="translate(-0.02 -0.02)"/></svg>