<?xml version="1.0" encoding="utf-8"?>
<!-- Generator: Adobe Illustrator 21.1.0, SVG Export Plug-In . SVG Version: 6.00 Build 0)  -->
<svg version="1.1" id="圖層_1" xmlns="http://www.w3.org/2000/svg" xmlns:xlink="http://www.w3.org/1999/xlink" x="0px" y="0px"
	 viewBox="0 0 635 450.5" style="enable-background:new 0 0 635 450.5;" xml:space="preserve">
<style type="text/css">
	.st0{fill:#721B3B;}
	.st1{fill:none;stroke:#FFFFFF;stroke-width:3;stroke-linecap:round;stroke-linejoin:round;}
	.st2{fill:none;stroke:#FFFFFF;stroke-width:2;stroke-linecap:round;stroke-linejoin:round;}
	.st3{fill:#FFFFFF;}
	.st4{fill:#E0A32B;}
	.st5{fill:none;stroke:#FFFFFF;stroke-width:5;stroke-linecap:round;stroke-linejoin:round;}
</style>
<title>map</title>
<polygon class="st0" points="584.5,399.3 68.1,415.2 0,102.7 635,0 "/>
<line class="st1" x1="205.8" y1="207.8" x2="261.4" y2="207.8"/>
<line class="st2" x1="363" y1="176.1" x2="567.5" y2="176.1"/>
<polyline class="st2" points="360.4,248.7 484.1,250.3 499.1,247.1 571.8,248.7 "/>
<polygon class="st3" points="326,232.8 317.9,232.8 312.4,239.5 306.8,232.8 269.4,232.8 269.4,192.1 326,192.1 "/>
<path class="st4" d="M306.1,211.2l-0.4-0.2c0,0.1,0,0.2,0,0.3c-0.1,0.2-0.4,0.3-0.6,0.2s-0.3-0.4-0.2-0.6c0-0.1,0.1-0.1,0.2-0.2
	c-0.9-0.2-1.8,0.2-2.2,0.9l-0.1,0.2l-3.2,5.5l-0.1,0.2c-0.5,0.9-0.2,2.1,0.7,2.7l0.5,0.3c0.9,0.5,2.1,0.2,2.7-0.7l0.1-0.3l0.1-0.1
	l0,0l0.9-1.5l1.2-2.2l0,0l0.9-1.5l0.1-0.1l0.2-0.3C307.4,212.9,307,211.7,306.1,211.2z M305.2,212.2c0.1-0.2,0.4-0.3,0.6-0.2
	s0.3,0.4,0.2,0.6c-0.1,0.2-0.4,0.3-0.6,0.2C305.2,212.7,305.1,212.4,305.2,212.2C305.2,212.2,305.2,212.2,305.2,212.2L305.2,212.2z
	 M304.7,213c0,0.1-0.1,0.1-0.1,0.2c-0.2,0.1-0.5,0.1-0.6-0.1c-0.1-0.1-0.1-0.3-0.1-0.4v-0.1c0.1-0.2,0.4-0.3,0.6-0.2
	S304.8,212.8,304.7,213L304.7,213L304.7,213z M303.6,211.2c0.1-0.2,0.4-0.3,0.6-0.2s0.3,0.4,0.2,0.6c-0.1,0.2-0.4,0.3-0.6,0.2
	C303.5,211.8,303.4,211.5,303.6,211.2C303.5,211.2,303.5,211.2,303.6,211.2L303.6,211.2z M301.5,218.4l-0.2,0.4c0,0-0.1,0.1-0.1,0.1
	l-0.3,0.1c0,0-0.1,0-0.1,0l-0.1-0.3c0,0,0-0.1,0-0.1l0.2-0.4c0.1,0,0.1,0,0.2,0l0.4,0.2C301.5,218.3,301.5,218.4,301.5,218.4
	L301.5,218.4z M299.7,218.9c0-0.1,0-0.1,0-0.2l0.2-0.4c0.1,0,0.1,0,0.2,0l0.4,0.2c0,0,0.1,0.1,0.1,0.1l0.1,0.3c0,0,0,0.1,0,0.1
	l-0.3,0.1c0,0-0.1,0-0.1,0L299.7,218.9z M300.7,219.7l-0.2,0.4c-0.1,0-0.1,0-0.2,0l-0.4-0.2c0-0.1,0-0.1,0-0.2l0.2-0.4
	c0,0,0.1-0.1,0.1-0.1l0.3-0.1c0,0,0.1,0,0.1,0l0.1,0.3C300.8,219.5,300.8,219.6,300.7,219.7L300.7,219.7z M301.7,219.4l-0.2,0.4
	c-0.1,0-0.1,0-0.2,0l-0.4-0.2c0,0-0.1-0.1-0.1-0.1l-0.1-0.3c0,0,0-0.1,0-0.1l0.3-0.1c0,0,0.1,0,0.1,0l0.4,0.2
	C301.7,219.2,301.8,219.2,301.7,219.4C301.8,219.3,301.7,219.4,301.7,219.4L301.7,219.4z M304,218.6c-0.2,0.3-0.5,0.4-0.8,0.4
	c-0.1,0-0.2,0-0.3-0.1c-0.4-0.2-0.5-0.7-0.3-1.1c0.2-0.4,0.7-0.5,1.1-0.3C304.1,217.8,304.2,218.2,304,218.6L304,218.6z M306.1,215
	c-0.2,0.4-0.7,0.5-1.1,0.3c-0.4-0.2-0.5-0.7-0.3-1.1c0.1-0.2,0.4-0.4,0.7-0.4l0,0c0.1,0,0.3,0,0.4,0.1c0.1,0,0.1,0.1,0.2,0.2
	C306.2,214.3,306.3,214.7,306.1,215L306.1,215z"/>
<path class="st4" d="M305,221.4l-1.5-1.9l-0.1-0.1l-0.2-0.3l-0.1-0.2c-0.1,0-0.2,0-0.3-0.1c-0.1-0.1-0.2-0.2-0.3-0.3h-0.1l-0.5-0.2
	l-2.5-1.1l0,0c-0.3-0.2-0.7-0.1-0.9,0.2l-0.5,0.8c-0.1,0.2,0,0.4,0.1,0.7c0.1,0.1,0.2,0.3,0.3,0.4l2.1,2c0.4,0.4,0.9,0.7,1.4,1
	l1.5,0.8c0.4,0.3,1.1,0.3,1.4-0.2c0,0,0.1-0.1,0.1-0.1l0.1-0.3C305.4,222.4,305.3,221.8,305,221.4z M301.7,219.4l-0.2,0.4
	c-0.1,0-0.1,0-0.2,0l-0.4-0.2c0,0-0.1-0.1-0.1-0.1l-0.1-0.3c0,0,0-0.1,0-0.1l0.3-0.1c0,0,0.1,0,0.1,0l0.4,0.2
	C301.7,219.2,301.7,219.3,301.7,219.4C301.7,219.3,301.7,219.4,301.7,219.4L301.7,219.4z M300.3,220.1l-0.4-0.2c0-0.1,0-0.1,0-0.2
	l0.2-0.4c0,0,0.1-0.1,0.1-0.1l0.3-0.1c0,0,0.1,0,0.1,0l0.1,0.3c0,0,0,0.1,0,0.1l-0.2,0.4C300.5,220.1,300.4,220.1,300.3,220.1
	L300.3,220.1z M300.6,218.5l0.2-0.4c0.1,0,0.1,0,0.2,0l0.4,0.2c0,0.1,0,0.1,0,0.2l-0.2,0.4c0,0-0.1,0.1-0.1,0.1l-0.3,0.1
	c0,0-0.1,0-0.1,0l-0.1-0.3C300.5,218.6,300.5,218.5,300.6,218.5C300.6,218.4,300.6,218.4,300.6,218.5L300.6,218.5z M299.6,218.7
	l0.2-0.4c0.1,0,0.1,0,0.2,0l0.4,0.2c0,0,0.1,0.1,0.1,0.1l0.1,0.3c0,0,0,0.1,0,0.1l-0.3,0.1c0,0-0.1,0-0.1,0l-0.4-0.2
	C299.6,218.9,299.6,218.8,299.6,218.7C299.6,218.8,299.6,218.8,299.6,218.7L299.6,218.7z"/>
<path class="st4" d="M304.5,217.9c-0.2-0.7-0.8-1.1-1.5-0.9s-1.1,0.8-0.9,1.5c0.2,0.6,0.7,1,1.4,0.9h0.1l0,0
	C304.3,219.2,304.7,218.6,304.5,217.9L304.5,217.9z M303.2,219c-0.1,0-0.2,0-0.3-0.1c-0.4-0.2-0.5-0.7-0.3-1.1
	c0.2-0.4,0.7-0.5,1.1-0.3c0.4,0.2,0.5,0.7,0.3,1.1C303.8,218.9,303.5,219.1,303.2,219z"/>
<path class="st4" d="M309.9,212.2l-1.4-0.8c-0.5-0.3-1-0.5-1.6-0.7l-2.8-0.8c-0.2,0-0.3-0.1-0.5-0.1c-0.3,0-0.5,0-0.6,0.2l-0.5,0.8
	c-0.2,0.3-0.1,0.7,0.2,0.9l0,0l1.1,0.8v-0.1c0.1-0.2,0.4-0.3,0.6-0.2s0.3,0.4,0.2,0.6l0,0c0,0.1-0.1,0.1-0.1,0.2l0.4,0.3l0.4,0.3
	l0,0l0,0c0.1,0,0.3,0,0.4,0.1c0.1,0,0.1,0.1,0.2,0.2h0.2h0.3h0.1l2.4,0.3c0.5,0.1,1-0.2,1.2-0.6l0.1-0.3
	C310.5,213.1,310.3,212.5,309.9,212.2z M305.4,212.8c-0.2-0.1-0.3-0.4-0.2-0.6s0.4-0.3,0.6-0.2c0.2,0.1,0.3,0.4,0.2,0.6
	C305.9,212.9,305.6,212.9,305.4,212.8C305.4,212.8,305.4,212.8,305.4,212.8L305.4,212.8z M304.3,211.7c-0.1,0.2-0.4,0.3-0.6,0.2
	s-0.3-0.4-0.2-0.6c0.1-0.2,0.4-0.3,0.6-0.2C304.4,211.2,304.5,211.5,304.3,211.7C304.3,211.7,304.3,211.7,304.3,211.7L304.3,211.7z
	 M304.9,210.9c0-0.1,0.1-0.1,0.2-0.2c0.2-0.1,0.5,0,0.6,0.2c0,0,0,0.1,0,0.1l0,0c0,0.1,0,0.2,0,0.3c-0.1,0.2-0.4,0.3-0.6,0.2
	S304.8,211.1,304.9,210.9L304.9,210.9z"/>
<path class="st4" d="M306.6,214.3v-0.1c-0.2-0.6-0.9-0.9-1.6-0.7c-0.6,0.2-0.9,0.9-0.7,1.6c0.2,0.6,0.9,0.9,1.5,0.7l0,0
	C306.4,215.6,306.8,214.9,306.6,214.3L306.6,214.3z M305,215.3c-0.4-0.2-0.5-0.7-0.3-1.1c0.1-0.3,0.4-0.4,0.7-0.4l0,0
	c0.1,0,0.3,0,0.4,0.1c0.1,0,0.1,0.1,0.2,0.2c0.3,0.3,0.3,0.8-0.1,1.1C305.7,215.4,305.3,215.5,305,215.3L305,215.3z"/>
<path class="st4" d="M301.1,204h-6.8c-1.1,0-2,0.9-2,2v0.4c0.1-0.1,0.2-0.1,0.3-0.1c0.3,0,0.5,0.2,0.4,0.5c0,0.3-0.2,0.5-0.5,0.4
	c-0.1,0-0.1,0-0.2-0.1c0.2,0.9,1,1.4,1.9,1.5h6.8c1.1,0,2-0.9,2-2V206C303.1,204.9,302.2,204,301.1,204z M301.5,205.8
	c0-0.1,0.1-0.1,0.1-0.1l0,0h0.5c0.1,0,0.1,0.1,0.1,0.1l0,0v0.4c0,0,0,0.1,0,0.1l-0.3,0.2c0,0-0.1,0-0.1,0l-0.3-0.2c0,0,0-0.1,0-0.1
	L301.5,205.8z M299.8,204.1c0.3,0,0.6,0.2,0.8,0.5c0,0.1,0,0.2,0,0.3c0,0.1,0,0.3-0.1,0.4c-0.2,0.4-0.7,0.5-1.1,0.3
	c-0.4-0.2-0.5-0.7-0.3-1.1C299.2,204.2,299.5,204.1,299.8,204.1L299.8,204.1z M295.6,204.1c0.4,0,0.8,0.4,0.8,0.8s-0.4,0.8-0.8,0.8
	c-0.3,0-0.5-0.2-0.7-0.4c-0.1-0.1-0.1-0.3-0.1-0.4C294.8,204.4,295.2,204.1,295.6,204.1L295.6,204.1z M293.6,208.2
	c-0.3,0-0.5-0.2-0.5-0.5c0-0.3,0.2-0.5,0.5-0.5c0.3,0,0.5,0.2,0.5,0.5C294.1,208,293.9,208.2,293.6,208.2L293.6,208.2z M293.6,206.2
	c-0.3,0-0.5-0.2-0.5-0.5c0-0.3,0.2-0.5,0.5-0.5c0.3,0,0.5,0.2,0.5,0.5C294.1,206,293.9,206.2,293.6,206.2L293.6,206.2z M294.7,207.2
	h-0.1c-0.3,0-0.5-0.2-0.5-0.5c0-0.3,0.2-0.5,0.5-0.5c0.1,0,0.1,0,0.2,0c0.2,0.1,0.3,0.4,0.2,0.6
	C294.9,207.1,294.8,207.2,294.7,207.2L294.7,207.2z M301.3,207.1h-0.4c-0.1,0-0.1-0.1-0.1-0.1l0,0v-0.5c0-0.1,0.1-0.1,0.1-0.1l0,0
	h0.4c0,0,0.1,0,0.1,0l0.2,0.3c0,0,0,0.1,0,0.1l-0.2,0.3C301.4,207.1,301.4,207.1,301.3,207.1L301.3,207.1z M302.2,207.7
	c0,0.1-0.1,0.1-0.1,0.1l0,0h-0.5c-0.1,0-0.1-0.1-0.1-0.1l0,0v-0.4c0,0,0-0.1,0-0.1l0.3-0.2c0,0,0.1,0,0.1,0l0.3,0.2c0,0,0,0.1,0,0.1
	L302.2,207.7z M302.9,207c0,0.1-0.1,0.1-0.1,0.1l0,0h-0.4c0,0-0.1,0-0.1,0l-0.2-0.3c0,0,0-0.1,0-0.1l0.2-0.3c0,0,0.1,0,0.1,0h0.4
	c0.1,0,0.1,0.1,0.1,0.1l0,0V207z"/>
<path class="st4" d="M303.1,201h-0.3c-0.5,0-0.9,0.3-1.1,0.8l-0.9,2.2v0.1l-0.1,0.3c0,0.1-0.1,0.1-0.1,0.2c0,0.1,0,0.2,0,0.3
	c0,0.1,0,0.3-0.1,0.4c0,0,0,0,0,0.1l0.1,0.5l0.3,2.7l0,0c0,0.3,0.3,0.6,0.6,0.6h1c0.3,0,0.4-0.2,0.5-0.4c0.1-0.1,0.1-0.3,0.2-0.5
	l0.7-2.8c0.1-0.6,0.2-1.1,0.2-1.7v-1.7c0.1-0.5-0.3-1-0.9-1.1C303.2,201,303.1,201,303.1,201z M302.9,207c0,0.1-0.1,0.1-0.1,0.1l0,0
	h-0.4c0,0-0.1,0-0.1,0l-0.2-0.3c0,0,0-0.1,0-0.1l0.2-0.3c0,0,0.1,0,0.1,0h0.4c0.1,0,0.1,0.1,0.1,0.1l0,0V207z M301.5,205.8
	c0-0.1,0.1-0.1,0.1-0.1l0,0h0.5c0.1,0,0.1,0.1,0.1,0.1l0,0v0.4c0,0,0,0.1,0,0.1l-0.3,0.2c0,0-0.1,0-0.1,0l-0.3-0.2c0,0,0-0.1,0-0.1
	L301.5,205.8z M301.9,206.9l0.3,0.2c0,0,0,0.1,0,0.1v0.4c0,0.1-0.1,0.1-0.1,0.1l0,0h-0.5c-0.1,0-0.1-0.1-0.1-0.1l0,0v-0.4
	c0,0,0-0.1,0-0.1l0.3-0.2c0-0.1,0-0.1,0.1-0.1C301.8,206.8,301.9,206.9,301.9,206.9L301.9,206.9z M300.8,207v-0.5
	c0-0.1,0.1-0.1,0.1-0.1l0,0h0.4c0,0,0.1,0,0.1,0l0.2,0.3c0,0,0,0.1,0,0.1l-0.2,0.3c0,0-0.1,0-0.1,0h-0.4
	C300.8,207,300.8,207,300.8,207L300.8,207z"/>
<path class="st4" d="M300.8,204.1l-0.1-0.1c-0.5-0.5-1.3-0.5-1.7,0c-0.5,0.5-0.5,1.3,0,1.7c0.2,0.2,0.5,0.3,0.8,0.3
	c0.3,0,0.5-0.1,0.8-0.3C301.1,205.4,301.2,204.6,300.8,204.1C300.8,204.1,300.8,204.1,300.8,204.1L300.8,204.1z M300.5,205.3
	c-0.2,0.4-0.7,0.5-1.1,0.3s-0.5-0.7-0.3-1.1c0.2-0.4,0.7-0.5,1.1-0.3c0.2,0.1,0.3,0.2,0.4,0.4c0,0.1,0,0.2,0,0.3
	C300.6,205,300.6,205.2,300.5,205.3L300.5,205.3z"/>
<path class="st4" d="M294.8,204.9c0-0.1,0-0.2,0-0.3c0-0.1,0-0.1-0.1-0.2l-0.1-0.3V204l-0.9-2.2c-0.2-0.5-0.6-0.7-1.1-0.8h-0.3
	c-0.6,0-1,0.4-1,1c0,0.1,0,0.1,0,0.1v1.7c0,0.6,0.1,1.1,0.2,1.7l0.7,2.8c0,0.2,0.1,0.3,0.2,0.5c0.1,0.2,0.2,0.4,0.5,0.4h1
	c0.3,0,0.6-0.3,0.6-0.6l0,0l0.2-1.4h-0.1c-0.3,0-0.5-0.2-0.5-0.5c0-0.3,0.2-0.5,0.5-0.5c0.1,0,0.1,0,0.2,0l0.1-0.5l0.1-0.5
	c0,0,0,0,0-0.1C294.9,205.2,294.8,205,294.8,204.9z M293.2,207.7c0-0.3,0.2-0.5,0.5-0.5s0.5,0.2,0.5,0.5c0,0.3-0.2,0.5-0.5,0.5
	S293.2,208,293.2,207.7L293.2,207.7z M293.6,206.3c-0.3,0-0.5-0.2-0.5-0.5c0-0.3,0.2-0.5,0.5-0.5c0.3,0,0.5,0.2,0.5,0.5
	C294.1,206,293.9,206.2,293.6,206.3L293.6,206.3z M292.2,206.8c0-0.3,0.2-0.5,0.5-0.5l0,0c0.3,0,0.5,0.2,0.4,0.5
	c0,0.3-0.2,0.5-0.5,0.4c-0.1,0-0.1,0-0.2-0.1C292.3,207.1,292.2,206.9,292.2,206.8L292.2,206.8z"/>
<path class="st4" d="M296.5,204c-0.5-0.5-1.2-0.5-1.7,0l-0.1,0.1c-0.4,0.5-0.3,1.3,0.2,1.7c0.2,0.2,0.5,0.3,0.8,0.3
	c0.7,0,1.2-0.5,1.2-1.2C296.8,204.6,296.7,204.2,296.5,204L296.5,204z M295.6,205.7c-0.3,0-0.5-0.2-0.7-0.4
	c-0.1-0.1-0.1-0.3-0.1-0.4c0-0.4,0.4-0.8,0.8-0.8c0.4,0,0.8,0.4,0.8,0.8S296.1,205.7,295.6,205.7L295.6,205.7L295.6,205.7z"/>
<path class="st4" d="M296,217.5l-0.1-0.2l-3.2-5.5l-0.1-0.2c-0.6-0.9-1.8-1.3-2.7-0.7l-0.5,0.3c-0.9,0.6-1.3,1.8-0.7,2.7l0.1,0.3
	l0.1,0.1l0.9,1.5l1.2,2.2l0.9,1.5l0,0l0.1,0.1l0,0l0.1,0.3c0.6,0.9,1.8,1.3,2.7,0.7l0.4-0.2c-0.2-0.1-0.4-0.3-0.3-0.6
	c0.1-0.2,0.3-0.4,0.6-0.3c0.1,0,0.2,0.1,0.3,0.2c0,0.1,0.1,0.2,0.1,0.2C296.3,219.2,296.4,218.3,296,217.5z M290.6,212.4l0.1-0.3
	c0,0,0.1-0.1,0.1,0l0.3,0.1c0,0,0.1,0,0.1,0.1l0.2,0.4c0,0.1,0,0.1,0,0.2L291,213c-0.1,0-0.1,0-0.2,0l-0.2-0.4
	C290.6,212.6,290.5,212.5,290.6,212.4L290.6,212.4z M290.9,211.4C290.9,211.4,290.9,211.3,290.9,211.4l0.4-0.3c0.1,0,0.1,0,0.2,0
	l0.2,0.4c0,0.1,0,0.1,0,0.2l-0.4,0.2c0,0-0.1,0-0.1,0l-0.3-0.1c0,0-0.1-0.1,0-0.1L290.9,211.4z M289.9,211.1l0.4-0.2
	c0.1,0,0.1,0,0.2,0l0.2,0.4c0,0,0,0.1,0,0.1l-0.1,0.3c0,0-0.1,0.1-0.1,0l-0.3-0.1c0,0-0.1,0-0.1-0.1l-0.2-0.4
	C289.9,211.2,289.9,211.1,289.9,211.1L289.9,211.1z M289.7,212.1l0.4-0.2c0,0,0.1,0,0.1,0l0.3,0.1c0,0,0.1,0.1,0,0.1l-0.1,0.3
	c0,0,0,0.1-0.1,0.1l-0.4,0.2c-0.1,0-0.1,0-0.2,0l-0.2-0.4C289.6,212.3,289.5,212.2,289.7,212.1C289.6,212.1,289.6,212.1,289.7,212.1
	L289.7,212.1z M289.3,215c-0.2-0.3-0.1-0.7,0.1-0.9c0.1-0.1,0.1-0.1,0.2-0.2c0.4-0.2,0.9-0.1,1.1,0.3c0.2,0.4,0.1,0.9-0.3,1.1
	C290,215.5,289.6,215.4,289.3,215L289.3,215z M291.4,218.6c-0.2-0.4-0.1-0.9,0.3-1.1c0.4-0.2,0.9-0.1,1.1,0.3
	c0.2,0.4,0.1,0.9-0.3,1.1c-0.1,0-0.2,0.1-0.3,0.1C291.9,219.1,291.6,218.9,291.4,218.6L291.4,218.6z M294.1,219.9
	c-0.2,0.1-0.5,0-0.6-0.2c-0.1-0.2,0-0.5,0.2-0.6c0.2-0.1,0.5,0,0.6,0.2C294.4,219.5,294.4,219.8,294.1,219.9
	C294.1,219.9,294.1,219.9,294.1,219.9L294.1,219.9z M294.5,218.6c-0.2,0.1-0.5,0.1-0.6-0.2c0,0,0,0,0,0c0-0.1-0.1-0.1-0.1-0.2
	c0-0.3,0.2-0.5,0.4-0.5c0.1,0,0.3,0,0.4,0.1l0.1,0.1C294.8,218.2,294.7,218.4,294.5,218.6C294.5,218.6,294.5,218.6,294.5,218.6
	L294.5,218.6z M295.8,218.9c-0.2,0.1-0.5,0-0.6-0.2c-0.1-0.2,0-0.5,0.2-0.6c0.2-0.1,0.5,0,0.6,0.2
	C296.1,218.5,296,218.8,295.8,218.9C295.8,218.9,295.8,218.9,295.8,218.9L295.8,218.9z"/>
<path class="st4" d="M292.9,210.9l-0.5-0.8c-0.1-0.2-0.4-0.2-0.6-0.2c-0.2,0-0.3,0-0.5,0.1l-2.8,0.8c-0.5,0.2-1.1,0.4-1.6,0.7
	l-1.4,0.8c-0.5,0.2-0.8,0.8-0.6,1.3c0,0,0,0.1,0.1,0.1l0.1,0.3c0.2,0.4,0.7,0.7,1.2,0.6l2.4-0.3h0.1l0,0h0.3h0.2
	c0.1-0.1,0.1-0.1,0.2-0.2c0.1-0.1,0.3-0.1,0.4-0.1l0,0l0.4-0.3l2.2-1.7l0,0c0.3-0.1,0.5-0.5,0.4-0.8C293,211.1,293,211,292.9,210.9z
	 M289.9,211.1l0.4-0.2c0.1,0,0.1,0,0.2,0l0.2,0.4c0,0,0,0.1,0,0.1l-0.1,0.3c0,0-0.1,0.1-0.1,0l-0.3-0.1c0,0-0.1,0-0.1-0.1l-0.2-0.4
	C289.9,211.2,289.9,211.1,289.9,211.1L289.9,211.1z M290.5,212.4C290.5,212.4,290.4,212.5,290.5,212.4l-0.4,0.3c-0.1,0-0.1,0-0.2,0
	l-0.2-0.4c0-0.1,0-0.1,0-0.2l0.4-0.2c0,0,0.1,0,0.1,0l0.3,0.1c0,0,0.1,0.1,0,0.1L290.5,212.4z M291.4,212.7l-0.4,0.2
	c-0.1,0-0.1,0-0.2,0l-0.2-0.4c0,0,0-0.1,0-0.1l0.1-0.3c0,0,0.1-0.1,0.1,0l0.3,0.1c0,0,0.1,0,0.1,0.1l0.2,0.4
	C291.4,212.7,291.4,212.7,291.4,212.7L291.4,212.7z M291.6,211.7l-0.4,0.2c0,0-0.1,0-0.1,0l-0.3-0.1c0,0-0.1-0.1,0-0.1l0.1-0.3
	c0,0,0-0.1,0.1-0.1l0.4-0.2c0.1,0,0.1,0,0.2,0l0.2,0.4c0.1,0,0.1,0.1,0.1,0.2S291.7,211.8,291.6,211.7L291.6,211.7z"/>
<path class="st4" d="M291.1,214c-0.3-0.6-1.1-0.8-1.7-0.5c-0.2,0.1-0.4,0.4-0.5,0.6l0,0c0,0,0,0.1,0,0.1c-0.2,0.6,0.2,1.3,0.9,1.5
	c0.6,0.2,1.3-0.2,1.5-0.8C291.3,214.6,291.3,214.3,291.1,214L291.1,214z M290.4,215.3c-0.4,0.2-0.9,0.1-1.1-0.3c0,0,0,0,0,0
	c-0.2-0.3-0.1-0.7,0.1-0.9c0.1-0.1,0.1-0.1,0.2-0.2c0.4-0.2,0.9-0.1,1.1,0.3C290.9,214.6,290.8,215.1,290.4,215.3L290.4,215.3
	L290.4,215.3z"/>
<path class="st4" d="M297.2,218.4l-0.5-0.8c-0.2-0.3-0.6-0.4-0.9-0.2c0,0,0,0,0,0l0,0l-1.3,0.5l0.1,0.1c0.1,0.2,0.1,0.5-0.2,0.6
	s-0.5,0.1-0.6-0.2c0-0.1-0.1-0.1-0.1-0.2l-0.5,0.2l-0.5,0.2h0c-0.1,0.1-0.2,0.2-0.3,0.3c-0.1,0-0.2,0.1-0.3,0.1l-0.1,0.2l-0.2,0.3
	l-0.1,0.1l0,0l-1.5,1.9c-0.3,0.4-0.3,0.9-0.1,1.3l0.1,0.3c0.3,0.5,0.9,0.6,1.4,0.4c0,0,0.1,0,0.1-0.1l1.5-0.8c0.5-0.3,0.9-0.6,1.4-1
	l2.1-2c0.1-0.1,0.2-0.2,0.3-0.4C297.2,218.8,297.4,218.6,297.2,218.4z M295.3,218.1c0.2-0.1,0.5,0,0.6,0.2c0.1,0.2,0,0.5-0.2,0.6
	c-0.2,0.1-0.5,0-0.6-0.2C295,218.5,295.1,218.3,295.3,218.1C295.3,218.1,295.3,218.1,295.3,218.1z M293.6,219.1
	c0.2-0.1,0.5,0,0.6,0.2c0.1,0.2,0,0.5-0.2,0.6c-0.2,0.1-0.5,0-0.6-0.2C293.3,219.5,293.4,219.3,293.6,219.1
	C293.6,219.1,293.6,219.1,293.6,219.1L293.6,219.1z M295.6,219.9c0,0.3-0.2,0.5-0.5,0.4c0,0-0.1,0-0.1,0c-0.2-0.1-0.4-0.3-0.3-0.6
	c0.1-0.2,0.3-0.4,0.6-0.3c0.1,0,0.2,0.1,0.3,0.2C295.6,219.7,295.7,219.8,295.6,219.9L295.6,219.9z"/>
<path class="st4" d="M293.2,217.6c-0.3-0.6-1.1-0.8-1.7-0.5c-0.3,0.2-0.5,0.5-0.6,0.8c-0.2,0.6,0.2,1.3,0.9,1.5l0,0h0.1
	c0.7,0.1,1.3-0.4,1.4-1C293.4,218.1,293.3,217.8,293.2,217.6L293.2,217.6z M292.5,218.9c-0.1,0-0.2,0.1-0.3,0.1
	c-0.4,0.1-0.8-0.2-0.9-0.6c-0.1-0.4,0.2-0.8,0.6-0.9c0.4-0.1,0.8,0.2,0.9,0.6C293,218.4,292.8,218.8,292.5,218.9z"/>
<path class="st4" d="M304.5,200.9c-6.5-3.7-14.8-1.5-18.5,5c-3.7,6.5-1.5,14.8,5,18.5c6.5,3.7,14.8,1.5,18.5-5
	C313.2,212.9,311,204.6,304.5,200.9z M309.3,219.3c-3.7,6.4-11.8,8.6-18.2,4.9c-6.4-3.7-8.6-11.8-4.9-18.2
	c3.7-6.4,11.8-8.6,18.2-4.9c0,0,0,0,0,0C310.8,204.8,312.9,212.9,309.3,219.3L309.3,219.3z"/>
<path class="st4" d="M305.7,198.7c-7.7-4.4-17.4-1.8-21.8,5.9s-1.8,17.4,5.9,21.8c7.6,4.4,17.4,1.8,21.8-5.9
	C316,213,313.4,203.2,305.7,198.7C305.8,198.8,305.7,198.8,305.7,198.7z M310,219.7c-3.9,6.8-12.5,9.1-19.3,5.2
	c-6.8-3.9-9.1-12.5-5.2-19.3c3.9-6.8,12.5-9.1,19.3-5.2C311.5,204.3,313.8,212.9,310,219.7L310,219.7z"/>
<polyline class="st1" points="171.5,208.5 171.5,180.3 264.2,114.4 363.9,115.6 570.6,118.3 570.6,280.4 576.5,303.7 571.6,326 
	370.8,326 "/>
<line class="st1" x1="150.2" y1="244.2" x2="360.4" y2="248.7"/>
<line class="st1" x1="362.1" y1="279.4" x2="570.6" y2="280.4"/>
<line class="st1" x1="261.3" y1="275.5" x2="362.1" y2="279.4"/>
<path class="st5" d="M52.2,210.9l9.3,24.9l124.9,74.3l65.4-12.4c0,0,27.8-10.4,29.3-10.4s9.4,8.4,12.4,8.4s41.6,19.8,41.6,19.8
	l7.9,20.3l13.4,7.4l-21.8,73.9l3.5,30.7"/>
<polyline class="st5" points="34.2,216.9 146.3,179.8 232,114.9 303.4,34 "/>
<polyline class="st1" points="190.5,147.3 205.7,167.9 205.7,291.3 "/>
<polyline class="st1" points="213.4,150.5 228.5,156.5 261.3,156.5 261.3,246.5 "/>
<line class="st2" x1="462" y1="116.9" x2="462" y2="280.4"/>
<line class="st2" x1="501.2" y1="117.4" x2="501.2" y2="279.4"/>
<polyline class="st1" points="356.4,343.4 360.4,326 363.9,115.6 "/>
<path class="st1" d="M591.8,161.9h16.1c4,0,7.3,3.3,7.3,7.3v63.2c0,4-3.3,7.3-7.3,7.3h-16.1c-4,0-7.3-3.3-7.3-7.3v-63.2
	C584.5,165.2,587.8,161.9,591.8,161.9z"/>
<line class="st1" x1="570.6" y1="202.3" x2="583.5" y2="202.6"/>
<g>
	<path class="st3" d="M110.5,289.7c-0.1,0.2-0.8,1.2-2,3.2c-0.2,0.3-0.6,0.2-1.3-0.2c-0.3-0.2-0.4-0.4-0.3-0.6l0.6-0.9l-3.8-2.5
		l-1.8,2.9c-0.1,0.2-0.6,1-1.5,2.5c-0.2,0.3-0.7,0.2-1.5-0.3c-0.3-0.2-0.3-0.3-0.2-0.5c0.9-1.4,1.6-2.3,1.9-2.8l1.7-2.6l-3.7-2.4
		l-0.5,0.7c-0.1,0.2-0.5,0.2-1.1-0.1c-0.1-0.1-0.2-0.1-0.3-0.2c-0.3-0.2-0.3-0.4-0.2-0.6c1.1-1.6,1.8-2.6,2.2-3.2l0.6-1
		c0.7-1,1.1-1.9,1.4-2.5c0.6,0.7,1.1,1.3,1.3,1.7l3.6,2.3l0.5-0.8c0.7-1.1,1.2-2,1.5-2.5c1.4,1.2,2,1.9,1.9,2
		c-0.1,0.1-0.1,0.1-0.2,0.1c-0.5-0.1-0.8-0.1-0.8,0l-1.4,2.2l3.7,2.4c0.8-0.3,1.3-0.3,1.4-0.3c0.1,0.1,0.3,0.4,0.5,1
		c0.2,0.6,0.3,1,0.2,1.1c-0.1,0.1-0.1,0.1-0.2,0.1c-0.6,0-0.9,0.1-1,0.1L110.5,289.7z M102.4,287.4l2.8-4.4l-3.7-2.4l-2.8,4.4
		L102.4,287.4z M106.7,283.9l-2.8,4.4l3.8,2.5l2.8-4.4L106.7,283.9z"/>
	<path class="st3" d="M131,298.3c0.8-0.2,1.3-0.3,1.4-0.2c0.1,0.1,0.2,0.4,0.4,1c0.2,0.6,0.3,0.9,0.2,1.1c-0.1,0.1-0.1,0.1-0.2,0.1
		c-0.6,0-0.9,0.1-0.9,0.1l-2.4,3.8l0.1,0.1c1-0.4,1.6-0.5,1.7-0.5c0.1,0.1,0.2,0.4,0.4,1.1c0.1,0.6,0.2,1,0.1,1.1
		c-0.1,0.1-0.2,0.2-0.2,0.1l-5.9-3.8c-0.5,2.9,0.6,5.6,3.3,8.2l-0.2,0.2c-0.4-0.2-0.8-0.1-1.2,0.2c-0.4,0.3-0.7,0.4-0.8,0.3
		c-0.3-0.2-0.8-0.9-1.3-2.2c-0.5-1.2-0.8-2.4-0.7-3.6c0-1.2,0.2-2.4,0.6-3.4l-0.3-0.2c-1.2,1.3-2.8,2-4.8,2.2c-2,0.2-4.1,0-6.4-0.8
		l0.1-0.3c4.2,0.6,7.4-0.1,9.6-2.1l-3.4-2.2c-1.1-0.7-1.9-1.2-2.3-1.2l0.2-0.9c0.4,0.4,1,0.9,1.8,1.5c0.1,0.1,0.2,0.1,0.2,0.1
		l2.1-3.3c0.5-0.8,1-1.7,1.4-2.4c0.4,0.5,0.8,1.1,1.2,1.8l2.6,1.7l0.2-0.3c0.8-1.2,1.3-2,1.5-2.6c1.4,1.2,2,1.9,1.9,2.1
		c-0.1,0.1-0.2,0.1-0.3,0.1c-0.5,0-0.8,0-0.8,0l-1.1,1.6L131,298.3z M123.8,300.6c0.7-0.8,1.8-2.3,3.2-4.3l-2.7-1.7l-2.9,4.5
		L123.8,300.6z M128.5,297.3c-1,1.5-2,2.9-3.2,4.3l2.8,1.8l2.9-4.5L128.5,297.3z"/>
	<path class="st3" d="M144.7,314.7l-1.7-1.1l-2.2,3.5c0.9,0.3,1.7,0.6,2.4,0.7l-0.1,0.3c-2.1,0-4.3-0.4-6.5-1.2l-0.4,0.4
		c-0.1,0.1-0.3,0.2-0.3,0.1c-0.1-0.1,0-0.9,0.5-2.4l0.7,0.4l1.8-2.8c0.8-1.2,1.3-2,1.5-2.5c1.1,1.1,1.6,1.7,1.5,1.8
		c0,0.1-0.1,0.1-0.3,0.1c-0.4,0-0.6-0.1-0.6,0l-2.6,4c0.4,0.2,0.7,0.4,1,0.5l4.1-6.4l-0.7-0.4l-0.1,0.1c-0.1,0.2-0.4,0.2-1,0
		c-0.1,0-0.2-0.1-0.3-0.1c-0.3-0.2-0.3-0.4-0.2-0.6c0.6-0.8,1-1.4,1.2-1.8l0.7-1.1c0.4-0.6,0.8-1.3,1.2-2.2c0.4,0.4,0.8,1,1.2,1.6
		l2,1.3c0.8-0.2,1.3-0.3,1.4-0.2c0.1,0.1,0.3,0.4,0.5,0.9c0.2,0.5,0.2,0.9,0.1,1c-0.1,0.1-0.1,0.1-0.2,0.1c-0.6,0-0.9,0.1-0.9,0.1
		l-0.9,1.4c0,0.1-0.2,0.4-0.6,1c-0.2,0.3-0.3,0.5-0.4,0.7c-0.2,0.3-0.7,0.2-1.4-0.2c-0.2-0.1-0.2-0.3-0.1-0.4l0.1-0.1l-0.4-0.2
		l-1.5,2.4l0.3,0.2c0.8-0.4,1.3-0.6,1.4-0.5c0.2,0.1,0.3,0.7,0.4,1.8c1.4,0,2.6-0.1,3.9-0.4c-0.1-0.9,0-1.9,0.3-3
		c-0.6,0.2-1.5,0.4-2.6,0.5l-0.1-0.3c0.6-0.2,1.4-0.7,2.5-1.4c1.1-0.8,1.9-1.5,2.5-2.3c1.1,1.3,1.7,2,1.6,2.1
		c-0.1,0.1-0.2,0.1-0.4,0.1c-0.4-0.2-0.6-0.2-0.7-0.2c-0.3,0.2-0.6,0.4-0.9,0.6l2.2,1.4c0.8-0.2,1.3-0.2,1.4-0.2
		c0.1,0.1,0.3,0.4,0.5,1c0.2,0.6,0.3,1,0.2,1.1c-0.1,0.2-0.4,0.1-0.9,0c-0.2-0.1-0.2-0.1-0.3-0.1c-1.2,0.9-2.5,1.5-3.9,1.8
		c0.6,1.4,1.7,2.6,3.1,3.7l-0.3,0.3c-0.5-0.2-0.9-0.1-1.3,0.2c-0.3,0.2-0.5,0.3-0.6,0.2c-0.2-0.1-0.6-0.7-1.1-1.6
		c-0.5-0.9-0.9-1.8-1.1-2.6c-2.1,0.3-4.3,0.1-6.6-0.8l0-0.3C143.5,314.6,144.1,314.7,144.7,314.7z M149.1,319
		c0.4-0.1,0.7-0.1,0.9-0.2c0.1,0,0.1,0,0.2,0c0.1,0.1,0.3,0.4,0.5,0.9c0.2,0.5,0.3,0.9,0.2,1c-0.1,0.1-0.3,0.2-0.6,0.2
		c-0.2,0-0.4,0-0.4,0.1l-0.4,0.6c-0.6,0.9-1.1,1.8-1.7,2.8c-0.2,0.4-0.7,0.3-1.5-0.2c-0.3-0.2-0.3-0.3-0.2-0.5l0.6-0.8l-3.2-2.1
		l-0.4,0.7c-0.2,0.3-0.7,0.2-1.4-0.2c-0.3-0.2-0.3-0.4-0.2-0.6c0.8-1.1,1.4-2,1.7-2.5l0.3-0.5c0.5-0.8,1-1.6,1.3-2.3
		c0.5,0.6,1,1.1,1.4,1.7L149.1,319z M145.3,310.7l2.2-3.5l-2.3-1.5l-2.2,3.5L145.3,310.7z M149,319.5l-3.2-2.1l-2,3.2l3.2,2.1
		L149,319.5z M151.1,310.5c-0.3,0.2-0.7,0.4-1.3,0.6c0,0.1,0,0.4,0,1c0,0.6,0.2,1.2,0.4,1.9c1.2-0.4,2.4-1,3.4-1.9L151.1,310.5z"/>
</g>
<g>
	<path class="st3" d="M47.5,183.5c2.1,3.6,5,5.5,8.8,5.6l0,0.3c-0.4,0.3-0.7,0.6-0.7,1c0,0.5-0.1,0.8-0.3,0.8
		c-0.4,0.1-1.3-0.2-2.6-0.9s-2.5-1.7-3.4-2.9c-0.9-1.2-1.7-2.5-2.2-3.8l-0.4,0.1c0.9,4.7-0.6,8.8-4.6,12.2l-0.3-0.2
		c1.3-1.5,2.2-3.2,2.9-5.2c0.6-2,0.7-4.1,0.3-6.2l-3.1,1c-1,0.3-1.8,0.6-2.2,0.9l-0.6-0.7c0.8-0.1,1.8-0.3,3.1-0.7l2.8-0.9
		c-0.2-0.8-0.4-1.8-0.8-3c-0.2-0.6-0.4-1.2-0.7-1.8c0.8-0.1,1.5-0.2,2-0.3c0.5-0.1,0.8,0,0.9,0.1c0,0.1,0,0.2-0.1,0.3l-0.6,0.6
		c0,0.1,0.1,0.2,0.1,0.3c0.4,1.2,0.7,2.3,0.9,3.3l4-1.3c0.4-1.1,0.6-1.7,0.8-1.7c0.1,0,0.5,0.1,1.2,0.4c0.6,0.3,1,0.5,1,0.6
		c0.1,0.2,0,0.3-0.1,0.3L47.5,183.5z"/>
	<path class="st3" d="M63.2,175.3c-0.9,0.3-1.6,0.5-2,0.8l-0.6-0.7c0.8-0.1,1.8-0.3,3-0.7l9.1-2.9c0.4-1,0.7-1.6,0.8-1.6
		c0.1,0,0.5,0.1,1.1,0.4c0.6,0.3,0.9,0.5,0.9,0.6c0,0.1,0,0.2-0.1,0.2L63.2,175.3z M75.6,180.5c0.5-1,0.8-1.6,0.9-1.6
		c0.1,0,0.4,0.1,1,0.4c0.6,0.3,0.9,0.5,0.9,0.6c0,0.1,0,0.2-0.1,0.2l-6.6,2.1l0.6,1.9c0.3,0.8,0.2,1.5-0.2,1.9
		c-0.4,0.5-0.7,0.7-1.1,0.8c-0.2,0-0.3,0-0.4-0.2c-0.3-0.6-1.1-0.8-2.5-0.8l-0.1-0.3c0.8-0.2,1.6-0.4,2.4-0.6
		c0.2-0.1,0.3-0.3,0.3-0.5l-0.6-1.8L66,184c-1,0.3-1.8,0.6-2.2,0.9l-0.5-0.7c0.5,0,1.5-0.3,2.9-0.7l3.9-1.2
		c-0.2-0.6-0.4-1.1-0.6-1.5l1.8-0.1c1-1.1,1.6-1.8,1.8-2.1l-6,1.9c-1.2,0.4-1.9,0.7-2.3,0.9l-0.5-0.6c0.6,0,1.5-0.3,2.9-0.7l5.7-1.8
		c0.4-0.7,0.6-1,0.8-1.1c0.1,0,0.5,0.1,1.1,0.4c0.6,0.3,0.9,0.5,0.9,0.6c0,0.2,0,0.3-0.2,0.3c-0.1,0-0.2,0.1-0.4,0.1
		c-0.1,0-0.2,0.1-0.2,0.1c-0.1,0-0.2,0.1-0.2,0.1c-0.9,0.6-1.8,1.2-2.9,1.9c0.3-0.1,0.4,0,0.5,0.1c0,0.1,0,0.2-0.1,0.3
		c-0.4,0.3-0.5,0.4-0.5,0.5l0.1,0.2L75.6,180.5z M66.4,178.6l0.1,0.4c0.1,0.3-0.2,0.6-1,0.9c-0.3,0.1-0.5,0-0.6-0.2l0,0
		c-0.2-0.8-0.4-1.4-0.4-1.7l-0.2-0.5c-0.2-0.6-0.4-1.3-0.8-1.9c0.6,0,1.3,0,2.1,0.1l5.7-1.8c0.4-0.7,0.6-1.1,0.7-1.1
		c0.1,0,0.5,0,1,0.2c0.5,0.2,0.8,0.3,0.9,0.4c0,0.1,0,0.2-0.1,0.3c-0.3,0.4-0.4,0.7-0.4,0.7l0.1,0.3c0,0,0,0.1,0,0.1
		c0.3,0.7,0.4,1.2,0.5,1.4c0.1,0.3-0.2,0.6-1,0.8c-0.3,0.1-0.5,0.1-0.6-0.1l-0.1-0.3L66.4,178.6z M65.4,172.3l0-0.2
		c0.3-0.1,0.6-0.2,0.9-0.3c1.4-0.4,2.2-0.3,2.4,0.5c0.2,0.5,0,0.9-0.5,1c-0.3,0.1-0.6,0-1-0.3C66.7,172.5,66.1,172.3,65.4,172.3z
		 M72.3,176.4l-0.6-2l-6,1.9l0.6,2L72.3,176.4z"/>
	<path class="st3" d="M91.6,173.3l-1.8,0.6l1.2,3.7c0.8-0.5,1.4-0.9,2-1.3l0.2,0.2c-1.3,1.6-2.9,2.9-4.8,4l0,0.5
		c0,0.2,0,0.3-0.1,0.3c-0.1,0-0.6-0.6-1.5-1.8l0.7-0.3l-0.9-3c-0.4-1.3-0.7-2.1-0.9-2.5c1.4-0.1,2.2-0.2,2.2,0c0,0.1,0,0.2-0.1,0.2
		c-0.3,0.3-0.4,0.4-0.4,0.4l1.4,4.3c0.4-0.1,0.7-0.3,0.9-0.4l-2.2-6.8l-0.7,0.2l0,0.1c0.1,0.2-0.1,0.4-0.6,0.7
		c-0.1,0.1-0.2,0.1-0.3,0.2c-0.3,0.1-0.5,0-0.5-0.2c-0.2-0.9-0.4-1.5-0.5-1.9l-0.4-1.2c-0.2-0.6-0.5-1.4-0.9-2.2
		c0.6,0,1.2,0,1.9,0.1l2.1-0.7c0.3-0.7,0.5-1.1,0.7-1.2c0.1,0,0.5,0,1,0.2c0.5,0.2,0.8,0.4,0.8,0.5c0,0.1,0,0.2,0,0.2
		c-0.3,0.5-0.5,0.7-0.5,0.7l0.5,1.5c0,0.1,0.1,0.4,0.3,1c0.1,0.3,0.2,0.5,0.3,0.7c0.1,0.3-0.2,0.6-1,0.9c-0.2,0.1-0.3,0-0.4-0.1
		l0-0.1l-0.4,0.1l0.8,2.5l0.3-0.1c0.2-0.9,0.4-1.3,0.5-1.3c0.2-0.1,0.7,0.2,1.5,0.8c0.8-1,1.5-2,2-3c-0.7-0.5-1.4-1.2-2-2
		c-0.2,0.6-0.6,1.3-1.2,2.1l-0.2-0.1c0.2-0.5,0.4-1.4,0.4-2.7c0.1-1.2,0-2.3-0.1-3.2c1.6,0,2.4,0,2.5,0.1c0,0.1,0,0.2-0.2,0.3
		c-0.4,0.2-0.5,0.3-0.5,0.3c0,0.3-0.1,0.7-0.1,1l2.3-0.7c0.4-0.7,0.6-1.1,0.7-1.1c0.1,0,0.5,0.1,1,0.3c0.6,0.2,0.8,0.4,0.9,0.5
		c0.1,0.2-0.1,0.4-0.5,0.6c-0.1,0.1-0.2,0.1-0.2,0.1c-0.1,1.4-0.4,2.7-1.1,3.9c1.4,0.4,2.9,0.4,4.5,0l0.1,0.4
		c-0.4,0.2-0.6,0.6-0.6,1c0,0.3-0.1,0.5-0.2,0.5c-0.2,0.1-0.8,0-1.8-0.1c-1-0.2-1.8-0.4-2.5-0.7c-1,1.7-2.5,3.1-4.5,4.3l-0.2-0.2
		C90.9,174.1,91.3,173.7,91.6,173.3z M89.2,170.4l-1.2-3.7l-2.5,0.8l1.2,3.7L89.2,170.4z M92.5,166.1c-0.1,0.3-0.2,0.8-0.3,1.3
		c0,0.1,0.3,0.3,0.7,0.6s1,0.6,1.6,0.9c0.5-1.1,0.7-2.3,0.7-3.6L92.5,166.1z M97.5,172.7c0.2-0.3,0.3-0.6,0.4-0.8
		c0-0.1,0.1-0.1,0.2-0.1c0.2,0,0.5,0,1,0.2c0.5,0.2,0.8,0.3,0.9,0.5c0,0.2,0,0.3-0.3,0.5c-0.1,0.2-0.2,0.3-0.2,0.4l0.2,0.6
		c0.3,0.9,0.6,1.9,1,2.9c0.1,0.4-0.2,0.7-1,1c-0.3,0.1-0.4,0-0.5-0.1l-0.3-0.9l-3.4,1.1l0.2,0.7c0.1,0.3-0.2,0.6-1,0.9
		c-0.3,0.1-0.5,0-0.5-0.2c-0.3-1.3-0.6-2.2-0.8-2.7l-0.2-0.5c-0.3-0.9-0.6-1.7-0.9-2.3c0.7,0,1.4,0,2,0L97.5,172.7z M97.8,173
		l-3.4,1.1l1.1,3.4l3.4-1.1L97.8,173z"/>
	<path class="st3" d="M111.3,165.7c-1.2,0.4-2.1,0.7-2.7,1l-0.7-0.8c1-0.2,2.4-0.5,4.1-1l7.5-2.4c0.4-1.1,0.7-1.7,0.9-1.8
		c0.2-0.1,0.6,0.1,1.3,0.4c0.7,0.3,1,0.5,1.1,0.7c0,0.1,0,0.2-0.1,0.3L111.3,165.7z"/>
	<path class="st3" d="M134.8,158.4c0.3-1,0.6-1.5,0.7-1.5c0.1,0,0.5,0.1,1,0.4c0.6,0.3,0.8,0.5,0.9,0.5c0,0.1,0,0.2-0.1,0.3l-3.2,1
		l0.8,2.7c1.4-0.6,2.7-1.3,3.8-2l0.2,0.2c-1,1-2.2,2-3.6,2.9c0.1,0.3,0.4,1.3,1,2.9c0.1,0.2-0.2,0.5-0.7,0.7
		c-0.2,0.1-0.3,0.2-0.4,0.2c-0.3,0.1-0.4,0-0.5-0.2c-0.4-1.3-0.6-2.2-0.8-2.6c0-0.1,0-0.1,0-0.1c-0.2,0.1-0.3,0.2-0.4,0.2
		c-0.1,0.1-0.2,0.3-0.2,0.6c0,0.1,0,0.2-0.1,0.3c-0.1,0-0.6-0.6-1.4-2l1-0.3c0.3-0.1,0.6-0.2,0.7-0.3l-2.2-7c-0.3-1.1-0.7-2-1-2.6
		c0.7,0,1.3,0,1.9,0c1-0.7,1.6-1.5,2-2.4c1.3,0.4,2,0.7,2.1,0.8c0,0.1,0,0.2-0.2,0.2l0,0c-0.1,0-0.2,0-0.4,0.1c-0.1,0-0.2,0-0.3,0
		c0,0-0.1,0-0.1,0c-0.9,0.6-2,1.2-3.1,1.6l0.8,2.5l1.2-0.4c0.3-1,0.5-1.5,0.6-1.5c0.1,0,0.4,0.1,1,0.4c0.6,0.3,0.9,0.5,0.9,0.6
		c0,0.1,0,0.2-0.1,0.2L133,156l0.8,2.7L134.8,158.4z M139.9,150.1l-1.6,0.5c0,0.1,0,0.1,0.1,0.2c0.9,2.8,0.6,4.9-0.8,6.3l-0.2-0.1
		c0.6-1.1,0.5-2.6-0.1-4.7c-0.1-0.2-0.2-0.5-0.3-0.9c0-0.1,0-0.1-0.1-0.1c-0.1-0.3-0.2-0.6-0.5-1.1c0.5,0,1.2,0,1.9,0.1l1.4-0.4
		c0.2-0.7,0.4-1,0.6-1.1c0.1,0,0.4,0,1,0.2c0.5,0.2,0.8,0.4,0.9,0.5c0,0.1-0.1,0.3-0.3,0.6c-0.1,0.2-0.2,0.3-0.2,0.3l0.7,2.4
		c0.1,0.4,0.4,0.5,0.7,0.4l0.5-0.1c0.1,0,0.2-0.2,0.3-0.4c0-0.1,0.1-0.2,0.2-0.2c0.1,0,0.4,0,0.7,0.3c0.3,0.2,0.5,0.4,0.5,0.5
		c0.1,0.4-0.3,0.8-1.4,1.1c-1.1,0.3-1.8,0.4-2.1,0.3c-0.3-0.2-0.6-0.5-0.8-1.1L139.9,150.1z M147.6,160.7l0,0.3
		c-0.3,0.2-0.4,0.6-0.4,1c0,0.4,0,0.6-0.1,0.6c-0.2,0.1-0.8,0-1.8-0.2c-1-0.2-1.9-0.5-2.6-0.8c-1.2,1.6-2.7,3-4.6,4l-0.2-0.2
		c0.6-0.5,1.3-1.2,2.1-2.1c0.8-0.9,1.4-1.7,1.6-2.3c-1.1-0.7-2.1-1.8-2.9-3.3c-0.3,0.1-0.5,0.2-0.8,0.4l-0.5-0.6
		c0.7-0.1,1.6-0.3,2.7-0.6l2.6-0.8c0.3-0.8,0.6-1.2,0.7-1.2c0.1,0,0.5,0.1,1.1,0.3c0.6,0.3,0.9,0.5,0.9,0.6c0,0.1-0.1,0.3-0.5,0.5
		c-0.2,0.1-0.3,0.3-0.3,0.5c-0.2,1.4-0.6,2.7-1.2,3.8C144.8,161,146.1,161,147.6,160.7z M139.2,157.7c0.9,1.2,1.9,2,3,2.5
		c0.5-1.2,0.8-2.4,0.9-3.7L139.2,157.7z"/>
</g>
<g>
	<path class="st3" d="M599.9,176.5c0,0.1,0,0.9,0,2.2c0,0.2-0.2,0.3-0.7,0.3c-0.2,0-0.3-0.1-0.3-0.2v-0.6h-2.7v2c0,0.1,0,0.7,0,1.7
		c0,0.2-0.3,0.3-0.8,0.3c-0.2,0-0.3-0.1-0.3-0.2c0-1,0-1.7,0-2v-1.8h-2.6v0.5c0,0.1-0.2,0.2-0.6,0.3c-0.1,0-0.2,0-0.2,0
		c-0.2,0-0.3-0.1-0.3-0.2c0-1.1,0.1-1.9,0.1-2.3v-0.7c0-0.7,0-1.3-0.1-1.7c0.5,0.2,0.9,0.3,1.2,0.4h2.5V174c0-0.8,0-1.4-0.1-1.7
		c1.1,0.2,1.6,0.3,1.6,0.4c0,0.1,0,0.1-0.1,0.1c-0.3,0.1-0.4,0.2-0.4,0.2v1.5h2.6c0.3-0.4,0.5-0.6,0.6-0.6c0.1,0,0.3,0.1,0.6,0.3
		c0.3,0.2,0.5,0.4,0.5,0.5c0,0.1,0,0.1-0.1,0.1c-0.3,0.2-0.4,0.3-0.4,0.3L599.9,176.5z M595.2,178v-3.1h-2.6v3.1H595.2z
		 M596.2,174.9v3.1h2.7v-3.1H596.2z"/>
	<path class="st3" d="M596.5,190.7c0.6,2.6,2,4.2,4.2,5l0,0.2c-0.3,0.1-0.5,0.2-0.6,0.5c-0.1,0.3-0.2,0.4-0.3,0.4
		c-0.3,0-0.7-0.3-1.4-1c-0.7-0.7-1.2-1.5-1.5-2.4c-0.3-0.9-0.5-1.8-0.6-2.7H596c-0.4,3-2,5.1-5,6.4l-0.1-0.2c1-0.6,1.9-1.5,2.7-2.6
		c0.8-1.1,1.2-2.3,1.3-3.6h-2.1c-0.7,0-1.2,0-1.5,0.1l-0.2-0.5c0.5,0.1,1.1,0.1,2,0.1h1.8c0-0.5,0.1-1.2,0.1-1.9
		c0-0.4,0-0.8-0.1-1.2c0.5,0.1,0.9,0.1,1.2,0.2c0.3,0.1,0.5,0.1,0.5,0.2c0,0.1,0,0.1-0.1,0.2l-0.4,0.2c0,0.1,0,0.1,0,0.2
		c0,0.8,0,1.5-0.1,2.1h2.6c0.4-0.6,0.7-0.9,0.8-0.9c0.1,0,0.3,0.1,0.6,0.4c0.3,0.3,0.5,0.5,0.5,0.6c0,0.1,0,0.2-0.1,0.2L596.5,190.7
		z"/>
	<path class="st3" d="M594.9,207.9h-1.2v2.4c0.5-0.1,1-0.3,1.4-0.4l0.1,0.2c-1.1,0.7-2.3,1.2-3.6,1.5l-0.1,0.3
		c0,0.1-0.1,0.2-0.1,0.2c-0.1,0-0.3-0.5-0.5-1.4l0.5,0v-2c0-0.8,0-1.4-0.1-1.7c0.9,0.2,1.3,0.3,1.3,0.4c0,0,0,0.1-0.1,0.1
		c-0.2,0.1-0.3,0.2-0.3,0.2v2.8c0.2,0,0.5,0,0.6-0.1V206h-0.5v0.1c0,0.1-0.2,0.2-0.5,0.3c-0.1,0-0.1,0-0.2,0c-0.2,0-0.3-0.1-0.3-0.2
		c0-0.6,0-1,0-1.3v-0.8c0-0.4,0-0.9-0.1-1.5c0.3,0.1,0.7,0.2,1.1,0.4h1.4c0.3-0.4,0.5-0.6,0.6-0.6c0.1,0,0.3,0.1,0.5,0.3
		c0.3,0.2,0.4,0.4,0.4,0.5c0,0.1,0,0.1-0.1,0.1c-0.3,0.2-0.4,0.3-0.4,0.3v1c0,0,0,0.3,0,0.7c0,0.2,0,0.3,0,0.5
		c0,0.2-0.3,0.3-0.8,0.3c-0.1,0-0.2-0.1-0.2-0.2v-0.1h-0.3v1.7h0.2c0.3-0.5,0.5-0.7,0.5-0.7c0.1,0,0.4,0.3,0.8,0.8
		c0.7-0.4,1.3-0.9,1.8-1.4c-0.3-0.4-0.6-0.9-0.8-1.6c-0.2,0.3-0.6,0.7-1.1,1.1l-0.1-0.1c0.2-0.3,0.5-0.8,0.8-1.5
		c0.3-0.7,0.5-1.4,0.5-1.9c1,0.3,1.5,0.5,1.5,0.5c0,0.1-0.1,0.1-0.2,0.2c-0.3,0-0.4,0.1-0.4,0.1c-0.1,0.2-0.2,0.4-0.3,0.6h1.5
		c0.4-0.4,0.6-0.5,0.6-0.5c0.1,0,0.3,0.1,0.6,0.4c0.3,0.2,0.4,0.4,0.4,0.5c0,0.1-0.1,0.2-0.4,0.3c-0.1,0-0.1,0-0.1,0
		c-0.3,0.8-0.8,1.5-1.4,2.1c0.8,0.5,1.7,0.8,2.7,0.8l0,0.2c-0.3,0.1-0.5,0.2-0.6,0.5c-0.1,0.2-0.2,0.3-0.2,0.3
		c-0.2,0-0.5-0.1-1.1-0.4c-0.5-0.3-1-0.6-1.4-0.9c-0.9,0.8-2.1,1.4-3.5,1.7l-0.1-0.1C594.3,208.2,594.6,208,594.9,207.9z
		 M593.9,205.7v-2.4h-1.6v2.4H593.9z M598.5,208.6c0.2-0.1,0.3-0.3,0.4-0.4c0,0,0.1-0.1,0.1-0.1c0.1,0,0.3,0.1,0.6,0.3
		c0.3,0.2,0.4,0.3,0.4,0.4c0,0.1-0.1,0.2-0.3,0.3c-0.1,0.1-0.2,0.1-0.2,0.2v0.4c0,0.6,0,1.3,0.1,1.9c0,0.2-0.3,0.4-0.8,0.4
		c-0.2,0-0.3-0.1-0.3-0.2l0-0.6h-2.2v0.5c0,0.2-0.3,0.3-0.8,0.3c-0.2,0-0.3-0.1-0.3-0.2c0-0.8,0-1.4,0-1.8v-0.4c0-0.6,0-1.1-0.1-1.6
		c0.4,0.1,0.8,0.2,1.2,0.4H598.5z M596.7,203.8c-0.1,0.2-0.2,0.4-0.4,0.7c0,0,0.1,0.2,0.3,0.5s0.5,0.5,0.8,0.8
		c0.5-0.6,0.9-1.3,1.1-2L596.7,203.8z M598.6,208.9h-2.2v2.2h2.2V208.9z"/>
</g>
</svg>
