<svg id="圖層_1" data-name="圖層 1" xmlns="http://www.w3.org/2000/svg" viewBox="0 0 605.28 418.94"><defs><style>.cls-1,.cls-2,.cls-5{fill:none;stroke:#7c7c7c;stroke-linecap:round;stroke-linejoin:round;}.cls-1{stroke-width:3px;}.cls-2{stroke-width:2px;}.cls-3{fill:#706f6f;}.cls-4{fill:#d99f30;}.cls-5{stroke-width:5px;}.cls-6{fill:#7c7c7c;}</style></defs><title>map2</title><line class="cls-1" x1="174.11" y1="176.25" x2="229.67" y2="176.25"/><line class="cls-2" x1="331.32" y1="144.57" x2="535.76" y2="144.57"/><polyline class="cls-2" points="328.69 217.15 452.43 218.79 467.37 215.52 540.04 217.15"/><polygon class="cls-3" points="296 205.61 287.86 205.61 282.4 212.38 276.76 205.61 239.45 205.61 239.45 164.92 296 164.92 296 205.61"/><path class="cls-4" d="M330.82,246.59l-.37-.22a.44.44,0,1,1-.8-.13.45.45,0,0,1,.18-.17,2,2,0,0,0-2.21.93l-.11.19-3.17,5.49-.11.19a2,2,0,0,0,.73,2.7l.55.32a2,2,0,0,0,2.7-.72l.15-.27.07-.13h0l.85-1.47,1.24-2.15h0l.85-1.47.07-.12.16-.27A2,2,0,0,0,330.82,246.59Zm-.86,1a.46.46,0,1,1,.17.63.46.46,0,0,1-.17-.63l0,0Zm-.53.82a.43.43,0,0,1-.15.16.46.46,0,0,1-.69-.52v-.1a.46.46,0,0,1,.8.46h0Zm-1.15-1.79a.46.46,0,1,1,.17.63.46.46,0,0,1-.17-.63l0,0Zm-2.08,7.18-.22.38a.13.13,0,0,1-.09.06l-.34.07a.09.09,0,0,1-.09,0l-.1-.33a.13.13,0,0,1,0-.11l.22-.38a.13.13,0,0,1,.18,0l.39.23a.13.13,0,0,1,0,.12Zm-1.76.47a.13.13,0,0,1,0-.18l.23-.39a.13.13,0,0,1,.18,0l.38.22a.13.13,0,0,1,.06.09l.08.34a.09.09,0,0,1,0,.09l-.33.1a.14.14,0,0,1-.11,0Zm1,.77-.22.38a.13.13,0,0,1-.18,0l-.39-.23a.13.13,0,0,1,0-.18l.22-.38a.14.14,0,0,1,.09-.06l.34-.07a.09.09,0,0,1,.09,0l.1.33a.13.13,0,0,1,0,.15Zm1-.28-.23.39a.13.13,0,0,1-.18,0l-.38-.22a.13.13,0,0,1-.06-.09l-.07-.34a.09.09,0,0,1,0-.09l.33-.1a.13.13,0,0,1,.11,0l.38.22a.13.13,0,0,1,.06.22Zm2.29-.75a.8.8,0,0,1-.84.38.76.76,0,0,1-.25-.09.8.8,0,1,1,1.1-.29Zm2.09-3.62a.8.8,0,1,1-.69-1.2h0a.79.79,0,0,1,.4.11.81.81,0,0,1,.21.17.8.8,0,0,1,.09.91Z" transform="translate(-54.72 -62.55)"/><path class="cls-4" d="M329.73,256.8l-1.47-1.89-.07-.09-.2-.26-.14-.16a.76.76,0,0,1-.25-.09.8.8,0,0,1-.29-.29h-.06l-.46-.2-2.53-1.09h0a.64.64,0,0,0-.86.24l-.49.85c-.14.24,0,.43.11.66a1.9,1.9,0,0,0,.31.39l2.07,2a6.84,6.84,0,0,0,1.36,1l1.45.83a1,1,0,0,0,1.4-.17l.08-.11.14-.25A1.2,1.2,0,0,0,329.73,256.8Zm-3.33-2-.23.39a.13.13,0,0,1-.18,0l-.38-.22a.13.13,0,0,1-.06-.09l-.07-.34a.09.09,0,0,1,0-.09l.33-.1a.13.13,0,0,1,.11,0l.38.22a.13.13,0,0,1,.11.15v0Zm-1.37.7-.39-.23a.13.13,0,0,1,0-.18l.22-.38a.14.14,0,0,1,.09-.06l.34-.07a.09.09,0,0,1,.09,0l.1.33a.13.13,0,0,1,0,.11l-.22.38a.13.13,0,0,1-.18,0Zm.28-1.65.22-.38a.13.13,0,0,1,.18,0l.39.23a.13.13,0,0,1,0,.18l-.22.38a.13.13,0,0,1-.09.06l-.34.07a.09.09,0,0,1-.09,0l-.1-.33a.13.13,0,0,1,0-.18l.05,0Zm-1,.27.23-.39a.13.13,0,0,1,.18,0l.38.22a.13.13,0,0,1,.06.09l.08.34a.09.09,0,0,1,0,.09l-.33.1a.14.14,0,0,1-.11,0l-.38-.22a.13.13,0,0,1,0-.18l0,0Z" transform="translate(-54.72 -62.55)"/><path class="cls-4" d="M329.23,253.31a1.22,1.22,0,1,0-1,1.5h.15a1.22,1.22,0,0,0,.85-1.47Zm-1.34,1.08a.76.76,0,0,1-.25-.09.81.81,0,1,1,.25.09Z" transform="translate(-54.72 -62.55)"/><path class="cls-4" d="M334.62,247.62l-1.44-.84a6.94,6.94,0,0,0-1.56-.67l-2.76-.79a1.9,1.9,0,0,0-.5-.07c-.27,0-.49,0-.63.23l-.49.85a.63.63,0,0,0,.22.86h0l1.12.83v-.1a.46.46,0,0,1,.8.46h0a.43.43,0,0,1-.15.16l.4.3.4.3h0a.79.79,0,0,1,.4.11.81.81,0,0,1,.21.17h.64l2.37.32a1.2,1.2,0,0,0,1.2-.59l.15-.25A1,1,0,0,0,334.62,247.62Zm-4.49.58a.46.46,0,1,1,.63-.17.46.46,0,0,1-.63.17h0Zm-1.06-1.14a.46.46,0,1,1-.17-.63.46.46,0,0,1,.17.63h0Zm.53-.82a.45.45,0,0,1,.18-.17.46.46,0,0,1,.67.3h0a.44.44,0,1,1-.8-.13Z" transform="translate(-54.72 -62.55)"/><path class="cls-4" d="M331.32,249.69v-.14a1.22,1.22,0,1,0-.81,1.61h0a1.22,1.22,0,0,0,.85-1.47Zm-1.59,1a.8.8,0,0,1,.4-1.5h0a.79.79,0,0,1,.4.11.81.81,0,0,1,.21.17.8.8,0,0,1-1,1.22Z" transform="translate(-54.72 -62.55)"/><path class="cls-4" d="M325.84,239.38h-6.79a2,2,0,0,0-2,2v.43a.45.45,0,0,1,.31-.12.46.46,0,1,1-.24.86A2,2,0,0,0,319,244h6.79a2,2,0,0,0,2-2v-.63A2,2,0,0,0,325.84,239.38Zm.36,1.82a.13.13,0,0,1,.13-.13h.45a.13.13,0,0,1,.13.13h0v.44a.13.13,0,0,1,0,.1l-.25.23a.08.08,0,0,1-.11,0l-.25-.23a.13.13,0,0,1,0-.1Zm-1.67-1.74a.8.8,0,0,1,.76.54.75.75,0,0,1,0,.26.77.77,0,0,1-.11.4.8.8,0,1,1-.69-1.2Zm-4.18,0a.8.8,0,1,1,0,1.61.79.79,0,0,1-.69-.4.77.77,0,0,1-.11-.4.8.8,0,0,1,.8-.8Zm-2,4.1a.46.46,0,1,1,.46-.46.46.46,0,0,1-.46.46Zm0-2a.46.46,0,1,1,.46-.46.46.46,0,0,1-.46.46Zm1.08,1h-.11a.46.46,0,0,1,0-.92.45.45,0,0,1,.21,0,.46.46,0,0,1-.1.86Zm6.62-.09h-.44a.13.13,0,0,1-.13-.13h0v-.45a.13.13,0,0,1,.13-.13H326a.13.13,0,0,1,.1,0l.23.25a.09.09,0,0,1,0,.11l-.23.25a.13.13,0,0,1-.09.07Zm.86.58a.13.13,0,0,1-.13.13h-.45a.13.13,0,0,1-.13-.13h0v-.44a.13.13,0,0,1,0-.1l.25-.23a.09.09,0,0,1,.11,0l.25.23a.13.13,0,0,1,0,.1Zm.71-.71a.13.13,0,0,1-.13.13H327a.13.13,0,0,1-.1,0l-.23-.25a.09.09,0,0,1,0-.11l.23-.25a.13.13,0,0,1,.1,0h.44a.13.13,0,0,1,.13.13h0Z" transform="translate(-54.72 -62.55)"/><path class="cls-4" d="M327.84,236.41h-.29a1.2,1.2,0,0,0-1.11.75l-.9,2.22v.11l-.12.3a1.93,1.93,0,0,0-.07.2.75.75,0,0,1,0,.26.77.77,0,0,1-.11.4v.06l.06.5.32,2.74h0a.63.63,0,0,0,.63.62h1c.27,0,.38-.19.52-.43a2.06,2.06,0,0,0,.18-.47l.69-2.79a6.83,6.83,0,0,0,.2-1.69v-1.67a1,1,0,0,0-.88-1.1Zm-.22,5.94a.13.13,0,0,1-.13.13h-.44a.13.13,0,0,1-.1,0l-.23-.25a.09.09,0,0,1,0-.11l.23-.25a.13.13,0,0,1,.1,0h.44a.13.13,0,0,1,.13.13h0Zm-1.42-1.16a.13.13,0,0,1,.13-.13h.45a.13.13,0,0,1,.13.13h0v.44a.13.13,0,0,1,0,.1l-.25.23a.08.08,0,0,1-.11,0l-.25-.23a.13.13,0,0,1,0-.1Zm.41,1.1.25.23a.13.13,0,0,1,0,.1v.44a.13.13,0,0,1-.13.13h-.45a.13.13,0,0,1-.13-.13h0v-.44a.13.13,0,0,1,0-.1l.25-.23a.11.11,0,0,1,.21,0Zm-1.12.06v-.45a.13.13,0,0,1,.13-.13h.44a.13.13,0,0,1,.1,0l.23.25a.09.09,0,0,1,0,.11l-.23.25a.13.13,0,0,1-.1,0h-.44a.13.13,0,0,1-.13,0Z" transform="translate(-54.72 -62.55)"/><path class="cls-4" d="M325.48,239.49l-.1-.11a1.22,1.22,0,1,0-.85,2.1,1.2,1.2,0,0,0,.76-.27,1.22,1.22,0,0,0,.2-1.71v0Zm-.26,1.17a.8.8,0,1,1,.06-.67.75.75,0,0,1,0,.26.77.77,0,0,1,0,.41Z" transform="translate(-54.72 -62.55)"/><path class="cls-4" d="M319.55,240.26a.8.8,0,0,1,0-.27,1.56,1.56,0,0,0-.07-.2l-.12-.3v-.11l-.9-2.22a1.2,1.2,0,0,0-1.11-.75h-.29a1,1,0,0,0-1,1.14v1.67a6.92,6.92,0,0,0,.2,1.69l.69,2.79a1.9,1.9,0,0,0,.18.47c.13.24.24.43.52.43h1a.63.63,0,0,0,.63-.62h0l.16-1.38h-.11a.46.46,0,0,1,0-.92.45.45,0,0,1,.21,0l.06-.5.06-.5v-.06A.77.77,0,0,1,319.55,240.26Zm-1.65,2.87a.46.46,0,1,1,.46.46.46.46,0,0,1-.46-.46Zm.46-1.49a.46.46,0,1,1,.46-.46.46.46,0,0,1-.46.46Zm-1.43.51a.46.46,0,0,1,.46-.46h0a.46.46,0,1,1-.47.44Z" transform="translate(-54.72 -62.55)"/><path class="cls-4" d="M321.2,239.38a1.22,1.22,0,0,0-1.7,0l-.1.11a1.23,1.23,0,1,0,1.8-.1Zm-.85,1.68a.79.79,0,0,1-.69-.4.77.77,0,0,1-.11-.4.8.8,0,1,1,.8.8h0Z" transform="translate(-54.72 -62.55)"/><path class="cls-4" d="M320.73,252.87l-.11-.19-3.17-5.49-.11-.19a2,2,0,0,0-2.7-.72l-.55.32a2,2,0,0,0-.73,2.7l.15.27.07.13.85,1.47,1.24,2.15.85,1.47h0l.07.12h0l.15.27a2,2,0,0,0,2.7.72l.37-.22a.46.46,0,1,1,.54-.67.44.44,0,0,1,.06.24A2,2,0,0,0,320.73,252.87Zm-5.41-5.08.1-.33a.09.09,0,0,1,.09,0l.34.08a.13.13,0,0,1,.09.06l.22.38a.13.13,0,0,1,0,.18l-.39.23a.13.13,0,0,1-.18,0l-.22-.38a.13.13,0,0,1-.07-.17Zm.26-1a.13.13,0,0,1,.06-.09l.38-.22a.13.13,0,0,1,.18,0l.23.39a.13.13,0,0,1,0,.18l-.38.22a.14.14,0,0,1-.11,0l-.33-.1a.09.09,0,0,1,0-.09Zm-.92-.34.39-.23a.13.13,0,0,1,.18,0l.22.38a.13.13,0,0,1,0,.11l-.1.33a.09.09,0,0,1-.09,0l-.34-.07a.13.13,0,0,1-.09-.06l-.22-.38a.13.13,0,0,1,0-.09Zm-.26,1,.38-.22a.13.13,0,0,1,.11,0l.33.1a.09.09,0,0,1,0,.09l-.07.34a.13.13,0,0,1-.06.09l-.38.22a.13.13,0,0,1-.18,0l-.23-.39a.13.13,0,0,1,0-.23Zm-.32,2.93a.8.8,0,0,1,.09-.92.79.79,0,0,1,.2-.17.8.8,0,1,1-.3,1.1Zm2.09,3.62a.8.8,0,1,1,1.1.29.75.75,0,0,1-.25.09.8.8,0,0,1-.87-.38Zm2.7,1.28a.46.46,0,1,1,.17-.63.46.46,0,0,1-.17.63h0Zm.36-1.33a.46.46,0,0,1-.63-.17h0a.43.43,0,0,1-.06-.21.46.46,0,0,1,.79-.34l.07.09a.46.46,0,0,1-.19.62h0Zm1.33.36a.46.46,0,1,1,.17-.63.46.46,0,0,1-.17.63h0Z" transform="translate(-54.72 -62.55)"/><path class="cls-4" d="M317.65,246.33l-.49-.85c-.14-.24-.36-.24-.63-.23a2,2,0,0,0-.5.07l-2.76.79a6.74,6.74,0,0,0-1.56.67l-1.44.84a1,1,0,0,0-.56,1.3l.06.12.15.25a1.2,1.2,0,0,0,1.2.59l2.37-.32h.66a.79.79,0,0,1,.2-.17.81.81,0,0,1,.4-.11h0l.4-.3,2.21-1.65h0a.64.64,0,0,0,.29-1Zm-3,.16.39-.23a.13.13,0,0,1,.18,0l.22.38a.13.13,0,0,1,0,.11l-.1.33a.09.09,0,0,1-.09,0l-.34-.07a.13.13,0,0,1-.09-.06l-.22-.38a.13.13,0,0,1,0-.13Zm.54,1.27a.13.13,0,0,1-.06.09l-.38.22a.13.13,0,0,1-.18,0l-.23-.39a.13.13,0,0,1,0-.18l.38-.22a.13.13,0,0,1,.11,0l.33.1a.09.09,0,0,1,0,.09Zm.92.34-.39.23a.13.13,0,0,1-.18,0l-.22-.38a.13.13,0,0,1,0-.11l.1-.33a.09.09,0,0,1,.09,0l.34.08a.13.13,0,0,1,.09.06l.22.38a.13.13,0,0,1-.07.15Zm.26-1-.38.22a.14.14,0,0,1-.11,0l-.33-.1a.09.09,0,0,1,0-.09l.08-.34a.13.13,0,0,1,.06-.09l.38-.22a.13.13,0,0,1,.18,0l.23.39a.14.14,0,1,1-.08.26Z" transform="translate(-54.72 -62.55)"/><path class="cls-4" d="M315.81,249.37a1.23,1.23,0,0,0-1.67-.45,1.21,1.21,0,0,0-.53.62h0a1.16,1.16,0,0,0,0,.14,1.23,1.23,0,1,0,2.25-.32Zm-.66,1.31a.8.8,0,0,1-1.09-.29h0a.8.8,0,0,1,.09-.92.79.79,0,0,1,.2-.17.8.8,0,0,1,.8,1.39h0Z" transform="translate(-54.72 -62.55)"/><path class="cls-4" d="M321.94,253.77l-.49-.85a.63.63,0,0,0-.86-.24h0l-1.28.55.07.09a.46.46,0,0,1-.8.46.43.43,0,0,1-.06-.21l-.46.2-.46.2h0a.8.8,0,0,1-.29.3.75.75,0,0,1-.25.09l-.14.16-.2.26-.07.09h0l-1.47,1.89a1.2,1.2,0,0,0-.09,1.34l.14.25a1,1,0,0,0,1.37.36l.11-.08,1.45-.83a6.87,6.87,0,0,0,1.36-1l2.07-2a1.91,1.91,0,0,0,.31-.39C322,254.2,322.08,254,321.94,253.77Zm-1.87-.26a.46.46,0,1,1-.17.63.46.46,0,0,1,.17-.63Zm-1.69,1a.46.46,0,1,1-.17.63.46.46,0,0,1,.17-.63l0,0Zm2,.77a.46.46,0,0,1-.48.44l-.11,0a.46.46,0,1,1,.54-.67.44.44,0,0,1,.06.24Z" transform="translate(-54.72 -62.55)"/><path class="cls-4" d="M317.9,253a1.22,1.22,0,1,0-1.4,1.79h.15A1.23,1.23,0,0,0,317.9,253Zm-.66,1.31a.75.75,0,0,1-.25.09.79.79,0,1,1,.25-.09Z" transform="translate(-54.72 -62.55)"/><path class="cls-4" d="M329.22,236.25a13.55,13.55,0,1,0,5,18.51A13.55,13.55,0,0,0,329.22,236.25ZM334,254.66a13.34,13.34,0,1,1-4.88-18.22h0A13.36,13.36,0,0,1,334,254.66Z" transform="translate(-54.72 -62.55)"/><path class="cls-4" d="M330.46,234.13A16,16,0,1,0,336.33,256a16,16,0,0,0-5.87-21.89Zm4.22,20.94a14.12,14.12,0,1,1-5.17-19.29,14.12,14.12,0,0,1,5.17,19.29Z" transform="translate(-54.72 -62.55)"/><polyline class="cls-1" points="139.81 177 139.81 148.74 232.51 82.81 332.17 84.1 538.88 86.77 538.88 248.88 544.83 272.18 539.87 294.49 339.1 294.49"/><line class="cls-1" x1="118.49" y1="212.69" x2="328.69" y2="217.15"/><line class="cls-1" x1="330.43" y1="247.89" x2="538.88" y2="248.88"/><line class="cls-1" x1="229.54" y1="243.92" x2="330.43" y2="247.89"/><path class="cls-5" d="M75.21,241.92l9.31,24.9L209.4,341.17l65.44-12.42s27.76-10.41,29.25-10.41,9.42,8.43,12.39,8.43,41.64,19.83,41.64,19.83L366,366.93l13.38,7.44-21.8,73.88L361.1,479" transform="translate(-54.72 -62.55)"/><polyline class="cls-5" points="2.5 185.33 114.53 148.25 200.3 83.31 271.68 2.5"/><polyline class="cls-1" points="158.78 115.73 173.98 136.35 173.98 259.79"/><polyline class="cls-1" points="181.63 119 196.82 124.95 229.54 124.95 229.54 214.92"/><line class="cls-2" x1="430.32" y1="85.37" x2="430.32" y2="248.88"/><line class="cls-2" x1="469.48" y1="85.88" x2="469.48" y2="247.89"/><polyline class="cls-1" points="324.72 311.84 328.69 294.49 332.17 84.1"/><rect class="cls-1" x="552.76" y="130.4" width="30.74" height="77.83" rx="7.32" ry="7.32"/><line class="cls-1" x1="538.88" y1="170.79" x2="551.77" y2="171.03"/><path class="cls-6" d="M137.43,327.62l-2.12,3.44q-.32.49-1.46-.25-.51-.33-.32-.62l.62-1L130,326.56l-2,3.09q-.16.25-1.65,2.7c-.2.31-.72.18-1.58-.37-.27-.17-.34-.37-.21-.57q1.54-2.24,2.08-3.08l1.79-2.78-4-2.59-.52.8c-.14.22-.53.19-1.17-.08a2.58,2.58,0,0,1-.36-.19q-.44-.28-.23-.61,1.76-2.54,2.36-3.47l.69-1.08a19.25,19.25,0,0,0,1.52-2.72q1,1.19,1.44,1.83l3.9,2.52.57-.88a19.78,19.78,0,0,0,1.57-2.76q2.23,1.95,2.06,2.21a.26.26,0,0,1-.27.13,2.24,2.24,0,0,0-.86,0l-1.5,2.34,4,2.55q1.27-.43,1.52-.27a2.93,2.93,0,0,1,.56,1.1q.38,1,.23,1.18a.3.3,0,0,1-.25.14,4.66,4.66,0,0,0-1,.1Zm-8.71-2.47,3.06-4.75-4-2.59-3.06,4.75Zm4.63-3.74-3.06,4.75,4.13,2.66,3.06-4.75Z" transform="translate(-54.72 -62.55)"/><path class="cls-6" d="M159.62,337a3.44,3.44,0,0,1,1.53-.19,3,3,0,0,1,.48,1q.33,1,.21,1.15a.32.32,0,0,1-.23.15c-.6,0-.93.08-1,.16l-2.64,4.1.1.06a5.69,5.69,0,0,1,1.83-.51,2.78,2.78,0,0,1,.41,1.17,2.83,2.83,0,0,1,.15,1.2c-.08.13-.17.17-.26.11l-6.38-4.12q-.81,4.66,3.53,8.91l-.25.25a1.25,1.25,0,0,0-1.25.19c-.43.31-.72.41-.87.32a5.86,5.86,0,0,1-1.39-2.33,9.24,9.24,0,0,1-.79-3.93,12.64,12.64,0,0,1,.61-3.67l-.29-.19a8,8,0,0,1-5.14,2.42,15.48,15.48,0,0,1-6.87-.89l.05-.34q6.84,1,10.38-2.26l-3.69-2.38a11.62,11.62,0,0,0-2.44-1.34l.21-1a10,10,0,0,0,2,1.58,1.11,1.11,0,0,0,.24.13l2.27-3.53a21.67,21.67,0,0,0,1.47-2.64,22.17,22.17,0,0,1,1.31,2l2.79,1.8.24-.38a18.81,18.81,0,0,0,1.57-2.76q2.24,2,2,2.27a.3.3,0,0,1-.31.12,4.19,4.19,0,0,0-.85,0l-1.14,1.76Zm-7.81,2.43q1.2-1.35,3.5-4.61l-2.91-1.87-3.13,4.85Zm5.07-3.6a55.22,55.22,0,0,1-3.45,4.64l3,1.94,3.13-4.85Z" transform="translate(-54.72 -62.55)"/><path class="cls-6" d="M174.35,354.64l-1.84-1.19-2.41,3.74q1.43.51,2.6.8l-.05.34a19.5,19.5,0,0,1-7.06-1.34l-.43.41c-.15.14-.27.17-.37.11s0-1,.51-2.63l.76.44,2-3q1.24-1.93,1.59-2.65,1.78,1.75,1.67,1.93a.28.28,0,0,1-.27.1,5.47,5.47,0,0,0-.68,0L167.49,356q.59.31,1.07.53L173,349.6l-.73-.47-.07.11q-.2.31-1.06,0a1.52,1.52,0,0,1-.36-.16c-.28-.18-.35-.39-.19-.63q.91-1.27,1.32-1.9l.76-1.18A25.74,25.74,0,0,0,174,343a14.24,14.24,0,0,1,1.33,1.74l2.14,1.38q1.28-.4,1.54-.23a2.28,2.28,0,0,1,.51,1c.19.59.24.95.15,1.09a.31.31,0,0,1-.23.15q-1,.07-1,.09l-1,1.57-.62,1-.44.76q-.34.52-1.51-.24c-.21-.13-.26-.28-.15-.44l.08-.13-.39-.25L172.76,353l.28.18q1.37-.66,1.54-.56.34.22.42,2a17.45,17.45,0,0,0,4.18-.43,10.36,10.36,0,0,1,.31-3.2,10.31,10.31,0,0,1-2.77.53l-.07-.28a10.46,10.46,0,0,0,2.67-1.56,14.52,14.52,0,0,0,2.74-2.49q1.84,2.09,1.71,2.3c-.08.13-.22.16-.42.08a2.13,2.13,0,0,0-.71-.23,10.85,10.85,0,0,1-1,.6l2.35,1.52a4.27,4.27,0,0,1,1.52-.2,2.64,2.64,0,0,1,.51,1.11q.32,1,.2,1.17t-.95,0a.81.81,0,0,0-.27-.08,11.66,11.66,0,0,1-4.23,1.94,10,10,0,0,0,3.32,4l-.28.33a1.29,1.29,0,0,0-1.36.21c-.29.21-.51.27-.65.18a6.3,6.3,0,0,1-1.21-1.71,11.64,11.64,0,0,1-1.2-2.76,14.11,14.11,0,0,1-7.1-.81l0-.3Q173.46,354.61,174.35,354.64Zm4.82,4.7q.6-.1,1-.2a.28.28,0,0,1,.25,0,2.57,2.57,0,0,1,.59,1q.37.89.24,1.1c-.1.15-.32.21-.67.17s-.38,0-.44.11l-.4.62q-.92,1.42-1.86,3.06c-.25.38-.78.3-1.61-.23-.27-.18-.35-.35-.24-.52l.6-.89-3.45-2.22-.48.75q-.33.51-1.5-.25-.44-.29-.23-.61,1.29-1.85,1.83-2.7l.36-.56a26.27,26.27,0,0,0,1.43-2.48,16.68,16.68,0,0,1,1.5,1.8Zm-4.13-9,2.43-3.77L175,345l-2.43,3.77Zm4,9.47-3.45-2.22-2.2,3.41,3.45,2.22Zm2.19-9.68a12.08,12.08,0,0,1-1.38.68,3.59,3.59,0,0,0,0,1,9.47,9.47,0,0,0,.38,2,11.36,11.36,0,0,0,3.72-2Z" transform="translate(-54.72 -62.55)"/><path class="cls-6" d="M88.92,199.34q3.07,5.29,8.59,5.49l0,.32a1.29,1.29,0,0,0-.68,1c0,.5-.14.77-.29.82q-.57.18-2.53-.9a10.81,10.81,0,0,1-3.35-2.85,16.21,16.21,0,0,1-2.17-3.69l-.35.11q1.3,6.89-4.46,11.87l-.26-.21a13.71,13.71,0,0,0,2.81-5.09,11.58,11.58,0,0,0,.26-6l-3.07,1a12.26,12.26,0,0,0-2.18.86l-.56-.72a16.91,16.91,0,0,0,3-.71l2.72-.86q-.25-1.18-.8-2.91a15.25,15.25,0,0,0-.68-1.76q1.17-.2,2-.29c.52-.07.8,0,.84.1a.28.28,0,0,1-.08.3l-.55.55.09.28q.53,1.7.87,3.2L92,197.91q.55-1.61.75-1.67a2.74,2.74,0,0,1,1.14.37q.93.43,1,.62c.05.17,0,.27-.11.31Z" transform="translate(-54.72 -62.55)"/><path class="cls-6" d="M104.2,191.31a10.57,10.57,0,0,0-1.94.77l-.57-.67a14.57,14.57,0,0,0,3-.67l8.89-2.8a5.46,5.46,0,0,1,.8-1.57,2.52,2.52,0,0,1,1,.36q.87.42.92.57c0,.12,0,.19-.09.22Zm12.09,5.13a6.18,6.18,0,0,1,.86-1.55,5.93,5.93,0,0,1,1.94.94c0,.1,0,.17-.06.19l-6.48,2,.59,1.87a1.86,1.86,0,0,1-.19,1.88,2.52,2.52,0,0,1-1,.81c-.15,0-.26,0-.35-.18q-.42-.84-2.48-.79l-.06-.29q1.24-.29,2.33-.63a.34.34,0,0,0,.25-.48l-.55-1.73L107,199.8a13.76,13.76,0,0,0-2.19.85l-.53-.64a14.08,14.08,0,0,0,2.84-.69l3.82-1.2a13.46,13.46,0,0,0-.6-1.42l1.74-.13a18.72,18.72,0,0,0,1.73-2L108,196.38a13.5,13.5,0,0,0-2.24.84l-.52-.61a13.17,13.17,0,0,0,2.85-.67l5.58-1.76q.57-1,.74-1a2.31,2.31,0,0,1,1.05.38c.58.29.88.5.92.63s0,.25-.18.3l-.38.1-.22.07-.22.09q-1.25.88-2.87,1.86.38-.12.46.13a.22.22,0,0,1-.09.27q-.53.39-.52.44l.07.24Zm-8.93-1.82.13.42q.15.49-1,.84-.46.14-.55-.16v0q-.3-1.24-.43-1.63l-.16-.5a14.68,14.68,0,0,0-.75-1.87,15.19,15.19,0,0,1,2,.11l5.52-1.74a3.56,3.56,0,0,1,.68-1.08,2.52,2.52,0,0,1,1,.19q.8.23.86.42a.28.28,0,0,1-.09.27,2.54,2.54,0,0,0-.41.68l.1.31,0,.14q.4,1,.49,1.32.15.47-.94.81-.47.15-.55-.1l-.09-.3Zm-1-6.2,0-.21a8.08,8.08,0,0,1,.88-.33q2-.63,2.37.48a.68.68,0,0,1-.47,1,1.07,1.07,0,0,1-1-.29A3.24,3.24,0,0,0,106.37,188.41Zm6.79,4-.63-2-5.9,1.86.63,2Z" transform="translate(-54.72 -62.55)"/><path class="cls-6" d="M132,189.39l-1.78.56,1.14,3.6q1.1-.66,1.93-1.27l.19.22a16.51,16.51,0,0,1-4.71,3.89l0,.51c0,.17,0,.27-.13.3s-.6-.55-1.44-1.76l.7-.25-.92-2.93q-.59-1.86-.87-2.48,2.11-.22,2.16,0a.23.23,0,0,1-.08.23,4.62,4.62,0,0,0-.4.42l1.33,4.21q.52-.21.92-.41l-2.1-6.67-.71.22,0,.11q.09.3-.58.68a1.27,1.27,0,0,1-.3.15q-.41.13-.52-.22-.33-1.28-.53-1.89l-.36-1.13a22,22,0,0,0-.84-2.17,12,12,0,0,1,1.86.07l2.06-.65q.43-1.05.68-1.13a2,2,0,0,1,.93.21c.49.19.75.36.8.49a.26.26,0,0,1,0,.23q-.49.69-.49.71l.48,1.51.34,1,.25.7q.16.5-1,.86c-.2.06-.32,0-.37-.14l0-.13-.38.12.78,2.47.27-.08q.31-1.26.47-1.31.33-.1,1.51.79a14.88,14.88,0,0,0,2-3,8.8,8.8,0,0,1-1.92-1.93,8.73,8.73,0,0,1-1.16,2.09L131,186a8.88,8.88,0,0,0,.43-2.59,12.19,12.19,0,0,0-.14-3.14q2.36-.07,2.43.13c0,.13,0,.23-.18.32-.36.19-.53.31-.53.34a9.13,9.13,0,0,1-.13,1l2.26-.71a3.69,3.69,0,0,1,.69-1.1,2.27,2.27,0,0,1,1,.27c.54.21.83.38.87.5s-.13.37-.54.6c-.14.08-.2.12-.2.13a9.9,9.9,0,0,1-1,3.82,8.46,8.46,0,0,0,4.41,0l.06.36a1.1,1.1,0,0,0-.6,1c0,.31-.1.48-.23.52a5.35,5.35,0,0,1-1.77-.13,9.9,9.9,0,0,1-2.46-.71,12,12,0,0,1-4.38,4.2l-.18-.19C131.24,190.18,131.64,189.77,132,189.39Zm-2.41-2.77L128.42,183l-2.42.76,1.14,3.63Zm3.25-4.19a10.55,10.55,0,0,1-.31,1.27,3.09,3.09,0,0,0,.68.56,8,8,0,0,0,1.53.85,9.64,9.64,0,0,0,.7-3.52Zm4.86,6.35c.17-.3.31-.55.41-.77a.24.24,0,0,1,.16-.14,2.17,2.17,0,0,1,1,.17q.78.24.85.44t-.25.53c-.14.15-.19.26-.17.35l.19.6q.43,1.37,1,2.87.17.55-1,.93-.39.12-.47-.13l-.26-.87-3.32,1,.23.72q.15.49-1,.84-.43.13-.52-.18-.51-1.84-.77-2.66l-.17-.53a22.24,22.24,0,0,0-.84-2.28,14.43,14.43,0,0,1,2,0Zm.27.33-3.32,1,1,3.29,3.32-1Z" transform="translate(-54.72 -62.55)"/><path class="cls-6" d="M151.1,182a19.43,19.43,0,0,0-2.66,1l-.66-.76a28.64,28.64,0,0,0,4-1l7.35-2.31q.65-1.66.86-1.72a2.62,2.62,0,0,1,1.23.39q1,.47,1,.66a.2.2,0,0,1-.13.28Z" transform="translate(-54.72 -62.55)"/><path class="cls-6" d="M174,174.92a4.44,4.44,0,0,1,.65-1.5c.13,0,.46.09,1,.38a3.18,3.18,0,0,1,.84.53c0,.14,0,.22-.11.26l-3.16,1,.82,2.61a27.56,27.56,0,0,0,3.69-1.91l.17.21a24.18,24.18,0,0,1-3.52,2.78q.15.49,1,2.87.11.35-.67.68l-.41.18q-.38.12-.48-.21-.57-2-.75-2.55l0-.13-.4.21q-.18.09-.15.62a.22.22,0,0,1-.15.25q-.19.06-1.37-1.92l.93-.29a6.49,6.49,0,0,0,.71-.26l-2.16-6.86a20,20,0,0,0-1-2.55,18.07,18.07,0,0,1,1.89,0,5.7,5.7,0,0,0,2-2.32,6.7,6.7,0,0,1,2,.78q.05.17-.16.24h0a1.76,1.76,0,0,1-.4.06l-.26,0-.06,0a12.57,12.57,0,0,1-3.05,1.55l.76,2.42,1.16-.37q.44-1.4.63-1.46a2.36,2.36,0,0,1,1,.37c.55.28.84.46.86.54s0,.2-.1.24l-3.43,1.08.82,2.61Zm5.07-8.11-1.59.5.07.22q1.29,4.1-.83,6.1l-.22-.14q.82-1.57-.14-4.61-.09-.3-.3-.91a.39.39,0,0,0-.05-.12,7.43,7.43,0,0,0-.45-1.05,13.19,13.19,0,0,1,1.9.09l1.37-.43c.24-.66.42-1,.55-1.05a2.45,2.45,0,0,1,1,.21c.52.18.8.34.84.48s-.08.29-.32.58-.21.25-.21.27l.72,2.3a.52.52,0,0,0,.73.39l.44-.14c.14,0,.24-.19.32-.43s.1-.19.16-.21.35,0,.65.26a1.58,1.58,0,0,1,.48.49q.19.61-1.33,1.09a3.49,3.49,0,0,1-2,.27,1.69,1.69,0,0,1-.74-1.08Zm7.48,10.37,0,.31a1.13,1.13,0,0,0-.36,1c0,.37,0,.58-.12.61a5.35,5.35,0,0,1-1.79-.18,10.74,10.74,0,0,1-2.51-.78,14.09,14.09,0,0,1-4.46,3.9l-.24-.22a14.72,14.72,0,0,0,2.07-2,11.73,11.73,0,0,0,1.6-2.23,8.15,8.15,0,0,1-2.8-3.18,4.42,4.42,0,0,0-.8.36l-.49-.62a14.63,14.63,0,0,0,2.64-.62l2.52-.79q.5-1.11.7-1.17a2.32,2.32,0,0,1,1,.33q.85.39.91.58c0,.14-.11.31-.46.51a.64.64,0,0,0-.32.52,12.78,12.78,0,0,1-1.18,3.66A8.75,8.75,0,0,0,186.55,177.17Zm-8.24-2.94a7.36,7.36,0,0,0,3,2.44,9.42,9.42,0,0,0,.84-3.64Z" transform="translate(-54.72 -62.55)"/><path class="cls-6" d="M658.95,202.13q0,.23.05,2.8,0,.4-.94.4c-.28,0-.42-.08-.42-.24v-.79h-3.41v2.55q0,.2.05,2.2,0,.38-1.06.38c-.22,0-.34-.09-.34-.26q.05-1.89.05-2.57V204.3h-3.31V205q0,.27-.71.39l-.28,0c-.24,0-.36-.09-.36-.27q.07-2.14.07-2.91v-.89a13.45,13.45,0,0,0-.13-2.16q1,.32,1.52.53h3.22V199a13.75,13.75,0,0,0-.12-2.2q2,.3,2,.51a.18.18,0,0,1-.11.18c-.34.17-.51.27-.51.31v1.93h3.26q.58-.73.78-.73a2,2,0,0,1,.74.43q.58.42.58.61a.21.21,0,0,1-.09.18,3.2,3.2,0,0,0-.57.44Zm-6,1.83V200h-3.31V204Zm1.29-3.92V204h3.41V200Z" transform="translate(-54.72 -62.55)"/><path class="cls-6" d="M654.63,220.23a8.12,8.12,0,0,0,5.35,6.39l-.05.26a1.05,1.05,0,0,0-.77.59c-.15.38-.3.57-.43.57q-.49,0-1.75-1.32a8.83,8.83,0,0,1-1.91-3,13.23,13.23,0,0,1-.78-3.41H654q-.67,5.69-6.39,8.15l-.15-.23a11.24,11.24,0,0,0,3.44-3.27,9.47,9.47,0,0,0,1.68-4.65h-2.63a10,10,0,0,0-1.91.13l-.26-.7a13.75,13.75,0,0,0,2.49.18h2.33q.09-1,.09-2.47a12.49,12.49,0,0,0-.09-1.54c.64.09,1.17.18,1.59.26s.63.17.63.28a.23.23,0,0,1-.13.22l-.57.3v.24q0,1.46-.11,2.71h3.35q.82-1.12,1-1.12t.79.57q.62.57.62.73c0,.14-.05.22-.16.22Z" transform="translate(-54.72 -62.55)"/><path class="cls-6" d="M652.55,242.08H651v3.09q1-.24,1.82-.51l.09.22a13.51,13.51,0,0,1-4.62,1.87l-.09.4c0,.13-.09.2-.18.2s-.34-.58-.69-1.72l.61,0v-2.51q0-1.59-.07-2.14,1.7.35,1.7.5a.19.19,0,0,1-.12.16l-.42.23v3.61l.82-.09v-5.71h-.61v.09c0,.17-.21.3-.62.39a1,1,0,0,1-.27,0c-.23,0-.35-.1-.35-.3q.05-1.08.05-1.6v-1a18.08,18.08,0,0,0-.12-1.9,10.05,10.05,0,0,1,1.43.51h1.76q.59-.71.81-.71a1.59,1.59,0,0,1,.67.39q.5.4.5.58a.22.22,0,0,1-.08.18l-.55.43v1.29c0,.06,0,.34,0,.84,0,.24,0,.44,0,.61s-.32.43-1,.43c-.17,0-.26-.07-.26-.2v-.11H651v2.12h.23q.55-.9.69-.9t1,1a12.11,12.11,0,0,0,2.28-1.82,7.21,7.21,0,0,1-1-2,7.09,7.09,0,0,1-1.41,1.35l-.15-.13a7.22,7.22,0,0,0,1-1.91,10.05,10.05,0,0,0,.66-2.48q1.86.53,1.86.7c0,.11-.07.18-.22.2a1.51,1.51,0,0,0-.5.13,7.34,7.34,0,0,1-.34.71H657q.69-.69.81-.69a1.86,1.86,0,0,1,.71.46q.55.44.55.61t-.57.34l-.19.05a8.05,8.05,0,0,1-1.74,2.72,6.9,6.9,0,0,0,3.44,1.08l0,.3a.9.9,0,0,0-.71.63c-.09.23-.19.35-.31.35a4.35,4.35,0,0,1-1.35-.54,8.08,8.08,0,0,1-1.74-1.16,9.77,9.77,0,0,1-4.45,2.2l-.09-.19Q652,242.41,652.55,242.08Zm-1.2-2.75v-3.11h-2.07v3.11Zm5.78,3.68q.31-.28.51-.5a.19.19,0,0,1,.16-.07,1.79,1.79,0,0,1,.73.38q.55.38.55.55c0,.13-.11.24-.32.35s-.22.16-.22.23v.51q0,1.17.07,2.48,0,.47-1,.47c-.22,0-.34-.07-.34-.22v-.74h-2.84v.62q0,.42-1,.42-.36,0-.36-.27.05-1.56.05-2.26v-.46a18.32,18.32,0,0,0-.09-2,11.63,11.63,0,0,1,1.55.49Zm-2.22-6.14a8.52,8.52,0,0,1-.55.92,2.48,2.48,0,0,0,.39.61,6.55,6.55,0,0,0,1,1,7.88,7.88,0,0,0,1.41-2.57Zm2.36,6.47h-2.84v2.82h2.84Z" transform="translate(-54.72 -62.55)"/></svg>