<svg id="圖層_1" data-name="圖層 1" xmlns="http://www.w3.org/2000/svg" viewBox="0 0 141.68 141.68"><defs><style>.cls-1{fill:#6e1b39;}</style></defs><title>search</title><path class="cls-1" d="M214.92,413.4a49.49,49.49,0,1,1,35-84.48h0a49.48,49.48,0,0,1-35,84.48Zm0-85A35.48,35.48,0,1,0,240,338.82,35.39,35.39,0,0,0,214.92,328.44Z" transform="translate(-165.45 -314.45)"/><ellipse class="cls-1" cx="113.82" cy="113.82" ry="29.5"/><path class="cls-1" d="M300.13,456.13a7,7,0,0,1-4.95-2l-41.72-41.72a7,7,0,1,1,9.9-9.9l41.72,41.72a7,7,0,0,1-5,12Z" transform="translate(-165.45 -314.45)"/></svg>