<?xml version="1.0" encoding="utf-8"?>
<!-- Generator: Adobe Illustrator 21.1.0, SVG Export Plug-In . SVG Version: 6.00 Build 0)  -->
<svg version="1.1" id="圖層_1" xmlns="http://www.w3.org/2000/svg" xmlns:xlink="http://www.w3.org/1999/xlink" x="0px" y="0px"
	 viewBox="0 0 474 409" style="enable-background:new 0 0 474 409;" xml:space="preserve">
<style type="text/css">
	.st0{fill:none;stroke:#FFFFFF;stroke-width:30;stroke-linecap:round;stroke-miterlimit:10;}
</style>
<title>sideNews</title>
<path class="st0" d="M58,326.1H42.4c-14.9,0-27-16-27-35.6V51.9c0-19.7,12.1-35.6,27-35.6h335.3c14.9,0,27,16,27,35.6v32.3"/>
<path class="st0" d="M457.9,120.9v236.4c0,20.3-14.8,36.7-33,36.7H101.6c-18.2,0-33-16.4-33-36.7V120.9c0-20.3,14.8-36.7,33-36.7
	h323.3C443.1,84.2,457.9,100.6,457.9,120.9z"/>
<line class="st0" x1="385" y1="302.4" x2="145.4" y2="302.4"/>
<line class="st0" x1="385" y1="243.2" x2="145.4" y2="243.2"/>
<line class="st0" x1="385" y1="184" x2="145.4" y2="184"/>
</svg>
