<?xml version="1.0" encoding="utf-8"?>
<!-- Generator: Adobe Illustrator 21.1.0, SVG Export Plug-In . SVG Version: 6.00 Build 0)  -->
<svg version="1.1" id="圖層_1" xmlns="http://www.w3.org/2000/svg" xmlns:xlink="http://www.w3.org/1999/xlink" x="0px" y="0px"
	 viewBox="0 0 443.6 443.6" style="enable-background:new 0 0 443.6 443.6;" xml:space="preserve">
<style type="text/css">
	.st0{fill:none;stroke:#FFFFFF;stroke-width:30;stroke-miterlimit:10;}
	.st1{fill:none;stroke:#FFFFFF;stroke-width:15;stroke-linecap:round;stroke-miterlimit:10;}
	.st2{fill:#FFFFFF;}
</style>
<title>sideAbout</title>
<circle class="st0" cx="221.8" cy="221.8" r="206.8"/>
<path class="st1" d="M127.9,351.9c-71.8-51.9-88-152.2-36.1-224c23.5-32.5,58.4-55.1,97.7-63.2"/>
<path class="st1" d="M316.2,92.1c71.6,52.2,87.4,152.5,35.3,224.1c-23.3,32-57.6,54.3-96.4,62.5"/>
<path class="st2" d="M258.4,153l-49,173.4c-3.3,11.7-5,18.7-5,21c-0.1,2.4,0.7,4.7,2.4,6.4c1.4,1.6,3.4,2.5,5.6,2.5
	c2.5,0,5.4-1.3,8.9-4c9.4-7.4,18.9-18,28.5-31.7l8.7,5.7c-10.7,16.6-24,31.2-39.6,43.3c-11.2,8.7-21.9,13.1-32.2,13.1
	c-6.8,0-12.3-2-16.6-6.1c-4.2-3.9-6.6-9.5-6.4-15.2c0-6.1,2.1-16.2,6.2-30.4L202,220.3c5.3-18.1,7.9-29.5,7.9-34.1
	c0.1-3.4-1.3-6.6-3.8-8.9c-2.6-2.3-6.1-3.5-10.5-3.5c-3.6,0-11.1,0.9-22.5,2.7v-9.6L258.4,153z M255.2,54.8
	c13.6,0,24.7,11,24.7,24.6c0,6.6-2.6,13-7.3,17.6c-9.8,9.6-25.4,9.4-35-0.4c-9.4-9.6-9.4-25,0-34.6
	C242.2,57.3,248.6,54.7,255.2,54.8L255.2,54.8z"/>
</svg>
