<?xml version="1.0" encoding="utf-8"?>
<!-- Generator: Adobe Illustrator 21.1.0, SVG Export Plug-In . SVG Version: 6.00 Build 0)  -->
<svg version="1.1" id="圖層_1" xmlns="http://www.w3.org/2000/svg" xmlns:xlink="http://www.w3.org/1999/xlink" x="0px" y="0px"
	 viewBox="0 0 512 404" style="enable-background:new 0 0 512 404;" xml:space="preserve">
<style type="text/css">
	.st0{fill:none;stroke:#FFFFFF;stroke-width:30;stroke-linecap:round;stroke-miterlimit:10;}
</style>
<title>sideTra</title>
<path class="st0" d="M129.8,323.6H83c-38.1,0-69.4-33.9-69.4-75.5v-91.3c0-41.5,31.2-75.5,69.4-75.5h230.6"/>
<path class="st0" d="M83,390l45-55.7c5.1-6,5.1-15.3,0-21.3l-45-55.7"/>
<path class="st0" d="M380.9,81.4h46.8c38.1,0,69.4,33.9,69.4,75.5v91.3c0,41.5-31.2,75.5-69.4,75.5H197"/>
<path class="st0" d="M427.7,15l-45,55.7c-5.1,6-5.1,15.3,0,21.3l45,55.7"/>
</svg>
